<svg xmlns="http://www.w3.org/2000/svg" xmlns:xlink="http://www.w3.org/1999/xlink" width="400" zoomAndPan="magnify" viewBox="0 0 300 299.999988" height="400" preserveAspectRatio="xMidYMid meet" version="1.2"><defs><clipPath id="8ff7df74d4"><path d="M 30 12.855469 L 270 12.855469 L 270 287.355469 L 30 287.355469 Z M 30 12.855469 "/></clipPath></defs><g id="8cb1e4eab8"><g clip-rule="nonzero" clip-path="url(#8ff7df74d4)"><path style=" stroke:none;fill-rule:nonzero;fill:#94916b;fill-opacity:1;" d="M 81.429688 58.570312 L 184.285156 58.570312 C 187.4375 58.570312 190 56.011719 190 52.855469 L 190 41.425781 C 190 31.976562 182.320312 24.285156 172.855469 24.285156 L 152.582031 24.285156 C 148.539062 17.3125 141.050781 12.855469 132.859375 12.855469 C 124.664062 12.855469 117.179688 17.3125 113.132812 24.285156 L 92.859375 24.285156 C 83.40625 24.285156 75.714844 31.976562 75.714844 41.425781 L 75.714844 52.855469 C 75.714844 56.011719 78.277344 58.570312 81.429688 58.570312 Z M 207.140625 161.425781 C 172.492188 161.425781 144.285156 189.617188 144.285156 224.277344 C 144.285156 258.941406 172.503906 287.132812 207.140625 287.132812 C 241.78125 287.132812 269.996094 258.941406 269.996094 224.277344 C 269.996094 189.617188 241.792969 161.425781 207.140625 161.425781 Z M 229.996094 229.992188 L 212.855469 229.992188 L 212.855469 247.136719 C 212.855469 250.289062 210.296875 252.851562 207.140625 252.851562 C 203.988281 252.851562 201.425781 250.289062 201.425781 247.136719 L 201.425781 229.992188 L 184.285156 229.992188 C 181.128906 229.992188 178.570312 227.433594 178.570312 224.277344 C 178.570312 221.125 181.128906 218.566406 184.285156 218.566406 L 201.425781 218.566406 L 201.425781 201.421875 C 201.425781 198.269531 203.988281 195.707031 207.140625 195.707031 C 210.296875 195.707031 212.855469 198.269531 212.855469 201.421875 L 212.855469 218.566406 L 229.996094 218.566406 C 233.152344 218.566406 235.710938 221.125 235.710938 224.277344 C 235.710938 227.433594 233.152344 229.992188 229.996094 229.992188 Z M 132.859375 224.277344 C 132.859375 183.320312 166.183594 149.996094 207.140625 149.996094 C 214.273438 149.996094 221.414062 151.046875 228.363281 153.117188 C 230.101562 153.652344 231.976562 153.308594 233.402344 152.222656 C 234.855469 151.148438 235.699219 149.445312 235.699219 147.640625 L 235.699219 52.855469 C 235.710938 43.40625 228.007812 35.714844 218.570312 35.714844 L 207.140625 35.714844 C 203.988281 35.714844 201.425781 38.273438 201.425781 41.425781 L 201.425781 52.855469 C 201.425781 62.308594 193.722656 70 184.285156 70 L 81.429688 70 C 71.96875 70 64.289062 62.308594 64.289062 52.855469 L 64.289062 41.425781 C 64.289062 38.273438 61.726562 35.714844 58.574219 35.714844 L 47.144531 35.714844 C 37.683594 35.714844 30.003906 43.40625 30.003906 52.855469 L 30.003906 269.992188 C 30.003906 279.441406 37.683594 287.132812 47.144531 287.132812 L 151.199219 287.132812 C 151.28125 287.132812 151.371094 287.144531 151.429688 287.132812 C 154.582031 287.132812 157.144531 284.574219 157.144531 281.421875 C 157.144531 279.339844 156.035156 277.535156 154.386719 276.527344 C 140.503906 262.519531 132.859375 244.003906 132.859375 224.277344 Z M 132.859375 224.277344 "/></g></g></svg>