<svg xmlns="http://www.w3.org/2000/svg" xmlns:xlink="http://www.w3.org/1999/xlink" width="1366" zoomAndPan="magnify" viewBox="0 0 1024.5 576" height="768" preserveAspectRatio="xMidYMid meet" version="1.2"><defs><clipPath id="bfad92b7aa"><path d="M 0 0.140625 L 1024 0.140625 L 1024 575.859375 L 0 575.859375 Z M 0 0.140625 "/></clipPath><clipPath id="1df929f5f9"><path d="M 524 132 L 1024 132 L 1024 575.859375 L 524 575.859375 Z M 524 132 "/></clipPath><clipPath id="ad30d183bc"><path d="M 451.152344 837.625 L 1327.695312 57.871094 L 1411.398438 151.964844 L 534.855469 931.71875 Z M 451.152344 837.625 "/></clipPath><clipPath id="2dcf9e63a3"><path d="M 451.152344 837.625 L 1327.695312 57.871094 L 1411.398438 151.964844 L 534.855469 931.71875 Z M 451.152344 837.625 "/></clipPath><clipPath id="f7021f7ea3"><path d="M 0 0.140625 L 486 0.140625 L 486 536 L 0 536 Z M 0 0.140625 "/></clipPath><clipPath id="927ae52348"><path d="M -448.5625 463.082031 L 427.980469 -316.671875 L 511.6875 -222.578125 L -364.855469 557.175781 Z M -448.5625 463.082031 "/></clipPath><clipPath id="76f872c552"><path d="M -448.5625 463.082031 L 427.980469 -316.671875 L 511.6875 -222.578125 L -364.855469 557.175781 Z M -448.5625 463.082031 "/></clipPath></defs><g id="7bd51bcee7"><g clip-rule="nonzero" clip-path="url(#bfad92b7aa)"><path style=" stroke:none;fill-rule:nonzero;fill:#ffffff;fill-opacity:1;" d="M 0 0.140625 L 1024 0.140625 L 1024 575.859375 L 0 575.859375 Z M 0 0.140625 "/><path style=" stroke:none;fill-rule:nonzero;fill:#000000;fill-opacity:1;" d="M 0 0.140625 L 1024 0.140625 L 1024 575.859375 L 0 575.859375 Z M 0 0.140625 "/></g><g clip-rule="nonzero" clip-path="url(#1df929f5f9)"><g clip-rule="nonzero" clip-path="url(#ad30d183bc)"><g clip-rule="nonzero" clip-path="url(#2dcf9e63a3)"><path style=" stroke:none;fill-rule:nonzero;fill:#94916b;fill-opacity:1;" d="M 1385.070312 132.761719 C 1260.898438 242.683594 1125.378906 349.609375 1004.042969 465.867188 C 939.882812 527.371094 878.800781 591.953125 819.085938 657.753906 C 776.214844 702.582031 737.171875 752.066406 690.039062 792.386719 C 689.34375 792.820312 688.617188 793.191406 687.859375 793.507812 C 687.101562 793.820312 686.328125 794.074219 685.53125 794.265625 C 684.734375 794.457031 683.925781 794.585938 683.109375 794.648438 C 682.292969 794.714844 681.476562 794.714844 680.660156 794.648438 C 679.84375 794.582031 679.035156 794.453125 678.242188 794.261719 C 677.445312 794.066406 676.667969 793.8125 675.914062 793.496094 C 675.15625 793.183594 674.429688 792.808594 673.734375 792.378906 C 673.035156 791.945312 672.378906 791.464844 671.757812 790.929688 C 671.136719 790.394531 670.5625 789.8125 670.035156 789.1875 C 669.507812 788.558594 669.03125 787.894531 668.609375 787.195312 C 668.1875 786.492188 667.820312 785.761719 667.511719 785.003906 C 667.207031 784.242188 666.960938 783.464844 666.777344 782.664062 C 666.59375 781.867188 666.472656 781.058594 666.417969 780.242188 C 666.359375 779.425781 666.371094 778.609375 666.441406 777.792969 C 666.515625 776.976562 666.652344 776.171875 666.855469 775.375 C 667.054688 774.582031 667.316406 773.808594 667.640625 773.054688 C 686.027344 743.386719 710.777344 717.769531 731.59375 689.695312 C 775.65625 633.527344 821.027344 578.335938 864.425781 521.644531 C 745.84375 646.863281 628.1875 787.96875 524.300781 909.804688 C 586.664062 801.515625 686.148438 678.570312 776.785156 577.855469 C 805.179688 545.800781 834.058594 514.175781 863.09375 482.703125 C 883.765625 462.304688 901.171875 437.265625 925.875 421.59375 C 935.683594 416.875 951.6875 421 952.117188 433.523438 C 951.570312 450.144531 940.703125 464.359375 932.023438 477.894531 C 910.46875 507.761719 888.058594 536.972656 865.308594 565.921875 C 883.457031 546.492188 901.796875 527.242188 920.578125 508.414062 C 1060.417969 366.152344 1212.160156 233.496094 1385.070312 132.761719 Z M 1385.070312 132.761719 "/></g></g></g><g clip-rule="nonzero" clip-path="url(#f7021f7ea3)"><g clip-rule="nonzero" clip-path="url(#927ae52348)"><g clip-rule="nonzero" clip-path="url(#76f872c552)"><path style=" stroke:none;fill-rule:nonzero;fill:#94916b;fill-opacity:1;" d="M 485.359375 -241.78125 C 361.1875 -131.859375 225.664062 -24.933594 104.328125 91.324219 C 40.171875 152.828125 -20.914062 217.410156 -80.625 283.210938 C -123.496094 328.039062 -162.542969 377.523438 -209.675781 417.84375 C -210.371094 418.277344 -211.097656 418.648438 -211.855469 418.964844 C -212.609375 419.277344 -213.386719 419.53125 -214.183594 419.722656 C -214.980469 419.914062 -215.785156 420.042969 -216.605469 420.105469 C -217.421875 420.171875 -218.238281 420.171875 -219.054688 420.105469 C -219.871094 420.039062 -220.675781 419.910156 -221.472656 419.71875 C -222.269531 419.523438 -223.046875 419.269531 -223.800781 418.953125 C -224.558594 418.640625 -225.285156 418.265625 -225.980469 417.835938 C -226.675781 417.402344 -227.335938 416.921875 -227.957031 416.386719 C -228.574219 415.851562 -229.148438 415.269531 -229.679688 414.644531 C -230.207031 414.015625 -230.683594 413.351562 -231.105469 412.652344 C -231.527344 411.949219 -231.894531 411.21875 -232.199219 410.460938 C -232.507812 409.699219 -232.753906 408.921875 -232.9375 408.121094 C -233.121094 407.324219 -233.242188 406.515625 -233.296875 405.699219 C -233.351562 404.882812 -233.34375 404.066406 -233.269531 403.25 C -233.195312 402.433594 -233.058594 401.628906 -232.859375 400.832031 C -232.65625 400.039062 -232.394531 399.265625 -232.070312 398.511719 C -213.6875 368.84375 -188.933594 343.226562 -168.121094 315.152344 C -124.054688 258.984375 -78.683594 203.792969 -35.289062 147.101562 C -153.867188 272.320312 -271.527344 413.425781 -375.410156 535.261719 C -313.050781 426.972656 -213.566406 304.027344 -122.929688 203.3125 C -94.535156 171.257812 -65.65625 139.632812 -36.621094 108.160156 C -15.949219 87.761719 1.457031 62.722656 26.160156 47.050781 C 35.96875 42.335938 51.976562 46.457031 52.402344 58.980469 C 51.859375 75.601562 40.988281 89.816406 32.308594 103.351562 C 10.753906 133.21875 -11.652344 162.429688 -34.40625 191.378906 C -16.253906 171.949219 2.082031 152.699219 20.863281 133.871094 C 160.707031 -8.390625 312.445312 -141.046875 485.359375 -241.78125 Z M 485.359375 -241.78125 "/></g></g></g></g></svg>