<svg xmlns="http://www.w3.org/2000/svg" xmlns:xlink="http://www.w3.org/1999/xlink" width="400" zoomAndPan="magnify" viewBox="0 0 300 299.999988" height="400" preserveAspectRatio="xMidYMid meet" version="1.2"><g id="bcf23adab2"><path style=" stroke:none;fill-rule:evenodd;fill:#000000;fill-opacity:1;" d="M 101.941406 59.167969 L 102.117188 59.167969 C 104.148438 59.167969 105.8125 57.542969 105.832031 55.507812 C 105.851562 54.445312 105.890625 53.398438 105.890625 52.492188 C 105.890625 48.640625 109.046875 45.503906 112.898438 45.503906 L 131.050781 45.503906 C 132.871094 45.503906 134.398438 44.207031 134.710938 42.40625 C 135.949219 35.378906 142.066406 30 149.515625 30 C 156.949219 30 163.066406 35.378906 164.304688 42.40625 C 164.613281 44.207031 166.140625 45.503906 167.980469 45.503906 L 186.117188 45.503906 C 189.96875 45.503906 193.121094 48.640625 193.121094 52.492188 C 193.121094 53.398438 193.160156 54.445312 193.179688 55.507812 C 193.21875 57.542969 194.882812 59.167969 196.917969 59.167969 L 197.070312 59.167969 C 200.921875 59.167969 204.078125 62.324219 204.078125 66.175781 L 204.078125 74.050781 C 204.078125 77.902344 200.921875 81.058594 197.070312 81.058594 L 101.941406 81.058594 C 98.089844 81.058594 94.953125 77.902344 94.953125 74.050781 L 94.953125 66.175781 C 94.953125 62.324219 98.089844 59.167969 101.941406 59.167969 Z M 149.515625 113.574219 C 177.910156 113.574219 200.921875 136.605469 200.921875 165 C 200.921875 193.394531 177.910156 216.425781 149.515625 216.425781 C 121.121094 216.425781 98.089844 193.394531 98.089844 165 C 98.089844 136.605469 121.121094 113.574219 149.515625 113.574219 Z M 113.613281 156.929688 L 114.308594 156.230469 C 116.535156 154.007812 120.175781 154.007812 122.378906 156.230469 L 139.121094 172.953125 C 140.59375 174.445312 143.011719 174.445312 144.503906 172.953125 L 176.632812 140.824219 C 178.859375 138.601562 182.476562 138.601562 184.703125 140.824219 L 185.398438 141.542969 C 187.625 143.769531 187.625 147.386719 185.398438 149.613281 L 145.839844 189.175781 C 143.632812 191.398438 139.992188 191.398438 137.769531 189.175781 L 113.613281 165 C 111.386719 162.792969 111.386719 159.15625 113.613281 156.929688 Z M 149.515625 36.117188 C 153.230469 36.117188 156.25 39.136719 156.25 42.871094 C 156.25 46.585938 153.230469 49.605469 149.515625 49.605469 C 145.78125 49.605469 142.761719 46.585938 142.761719 42.871094 C 142.761719 39.136719 145.78125 36.117188 149.515625 36.117188 Z M 82.199219 56.980469 L 87.328125 56.980469 C 87.988281 56.980469 88.566406 57.289062 88.917969 57.871094 C 89.265625 58.433594 89.304688 59.089844 88.992188 59.691406 C 87.214844 63.289062 87.386719 67.007812 87.464844 71.148438 C 87.464844 71.980469 86.960938 72.695312 86.167969 72.96875 C 82.277344 74.246094 79.453125 77.921875 79.453125 82.21875 L 79.453125 243.96875 C 79.453125 249.328125 83.84375 253.703125 89.1875 253.703125 L 209.824219 253.703125 C 215.1875 253.703125 219.582031 249.308594 219.582031 243.96875 C 219.582031 190.046875 219.582031 136.140625 219.582031 82.21875 C 219.582031 77.921875 216.734375 74.246094 212.84375 72.96875 C 212.070312 72.695312 211.546875 71.980469 211.566406 71.148438 C 211.625 67.007812 211.820312 63.289062 210.019531 59.691406 C 209.730469 59.089844 209.75 58.433594 210.117188 57.871094 C 210.464844 57.289062 211.027344 56.980469 211.703125 56.980469 L 216.832031 56.980469 C 226.898438 56.980469 235.160156 65.226562 235.160156 75.289062 C 235.160156 133.859375 235.160156 192.40625 235.160156 250.953125 C 235.160156 261.039062 226.898438 269.285156 216.832031 269.285156 L 82.199219 269.285156 C 72.117188 269.285156 63.871094 261.039062 63.871094 250.953125 L 63.871094 75.289062 C 63.871094 65.226562 72.117188 56.980469 82.199219 56.980469 Z M 82.199219 56.980469 "/></g></svg>