<svg xmlns="http://www.w3.org/2000/svg" xmlns:xlink="http://www.w3.org/1999/xlink" width="400" zoomAndPan="magnify" viewBox="0 0 300 299.999988" height="400" preserveAspectRatio="xMidYMid meet" version="1.2"><defs><clipPath id="d4a6d91ebe"><path d="M 41.515625 22.777344 L 256.765625 22.777344 L 256.765625 275.527344 L 41.515625 275.527344 Z M 41.515625 22.777344 "/></clipPath><clipPath id="c3bbb7e62a"><path d="M 0.597656 0.777344 L 215.765625 0.777344 L 215.765625 253.039062 L 0.597656 253.039062 Z M 0.597656 0.777344 "/></clipPath><clipPath id="c4f421a8be"><rect x="0" width="216" y="0" height="254"/></clipPath></defs><g id="123d23ca28"><g clip-rule="nonzero" clip-path="url(#d4a6d91ebe)"><g transform="matrix(1,0,0,1,41,22)"><g clip-path="url(#c4f421a8be)"><g clip-rule="nonzero" clip-path="url(#c3bbb7e62a)"><path style=" stroke:none;fill-rule:nonzero;fill:#94916b;fill-opacity:1;" d="M 39.6875 61.597656 C 40.394531 62.757812 41.101562 63.917969 41.855469 65.027344 L 41.605469 64.625 Z M 29.804688 41.835938 C 30.210938 42.996094 31.015625 45.164062 31.972656 47.582031 C 32.984375 49.953125 34.242188 52.574219 35.402344 54.539062 C 35.554688 54.742188 35.65625 54.996094 35.804688 55.195312 L 36.765625 57.0625 C 35.300781 54.691406 33.839844 51.820312 32.628906 49.097656 C 31.417969 46.375 30.460938 43.75 29.855469 41.886719 Z M 26.78125 28.023438 L 26.78125 28.625 C 26.78125 29.128906 26.882812 30.089844 27.082031 31.601562 C 27.082031 31.296875 27.035156 31.199219 26.984375 31.046875 C 26.882812 30.492188 26.832031 29.734375 26.679688 28.425781 C 26.730469 28.828125 26.679688 28.121094 26.679688 28.023438 Z M 27.035156 31.046875 C 27.386719 33.769531 26.730469 29.28125 27.035156 31.046875 Z M 26.527344 22.074219 L 26.527344 19.953125 C 26.527344 19.199219 26.628906 18.695312 26.527344 19.300781 C 26.882812 15.617188 26.832031 16.375 26.730469 18.492188 C 26.578125 19.703125 26.578125 20.863281 26.480469 22.074219 Z M 27.234375 15.113281 C 27.132812 15.71875 27.082031 16.324219 26.984375 16.980469 C 26.984375 16.675781 27.035156 16.171875 27.234375 15.113281 Z M 26.679688 20.863281 L 26.679688 20.410156 Z M 26.730469 20.207031 L 26.730469 20.410156 Z M 26.78125 19.652344 L 26.78125 20.15625 Z M 26.832031 18.746094 L 26.832031 18.644531 Z M 26.78125 19.652344 C 26.78125 19.351562 26.832031 18.996094 26.882812 18.695312 C 26.882812 18.542969 26.882812 18.894531 26.78125 19.652344 Z M 27.035156 16.929688 C 27.035156 17.433594 27.035156 17.535156 26.882812 18.644531 C 26.933594 18.089844 26.984375 17.484375 27.035156 16.929688 Z M 26.78125 24.140625 C 26.78125 27.566406 26.984375 29.03125 26.933594 28.777344 C 26.933594 28.527344 26.628906 26.558594 26.679688 23.132812 C 26.679688 24.140625 26.679688 25.300781 26.78125 25.753906 C 26.832031 26.207031 26.78125 25.953125 26.78125 24.140625 Z M 29.554688 40.523438 C 29.855469 41.382812 30.109375 42.238281 30.410156 43.046875 L 31.167969 45.214844 C 30.964844 44.660156 30.5625 43.449219 30.160156 42.390625 C 29.804688 41.332031 29.503906 40.425781 29.554688 40.472656 Z M 36.210938 0.949219 C 37.117188 0.847656 37.871094 0.949219 37.972656 0.949219 C 38.074219 0.949219 37.773438 0.949219 37.367188 0.949219 C 36.964844 0.949219 36.511719 0.996094 36.359375 1.046875 C 35.402344 1.046875 34.445312 1.351562 33.585938 1.804688 C 34.242188 1.453125 35.25 1.097656 36.160156 0.996094 L 36.210938 0.996094 Z M 40.445312 1.804688 C 38.730469 1.148438 37.570312 1.097656 36.964844 1.097656 C 36.359375 1.097656 36.257812 1.097656 36.359375 1.097656 C 37.773438 0.996094 39.183594 1.351562 40.445312 1.855469 Z M 27.082031 17.6875 C 27.035156 18.191406 26.984375 18.695312 26.933594 19.199219 C 27.082031 17.183594 27.335938 15.214844 27.738281 13.199219 L 27.539062 14.460938 C 27.386719 15.519531 27.234375 16.578125 27.132812 17.6875 Z M 49.21875 7.550781 C 50.175781 8.460938 51.132812 9.367188 52.140625 10.222656 L 50.832031 9.066406 Z M 58.949219 15.667969 C 61.015625 17.382812 62.777344 18.84375 64.390625 20.207031 C 62.679688 18.796875 60.863281 17.332031 58.441406 15.46875 C 57.183594 14.359375 60.257812 16.828125 58.949219 15.667969 Z M 67.066406 22.425781 C 66.15625 21.667969 65.300781 20.964844 64.390625 20.207031 C 65.351562 21.011719 66.257812 21.71875 67.066406 22.425781 Z M 46.292969 5.332031 C 46.542969 5.535156 47.050781 5.886719 48.664062 7.300781 L 47.453125 6.34375 C 47.097656 6.039062 46.695312 5.6875 46.292969 5.332031 Z M 47.453125 6.34375 C 48.710938 7.5 49.570312 8.257812 49.972656 8.558594 C 49.671875 8.257812 48.863281 7.601562 47.453125 6.34375 Z M 46.292969 5.332031 C 46.191406 5.234375 46.089844 5.183594 45.988281 5.082031 C 46.089844 5.183594 46.191406 5.234375 46.292969 5.332031 Z M 34.34375 1.855469 C 34.191406 1.957031 33.636719 2.15625 32.679688 2.914062 C 32.023438 3.417969 32.175781 3.265625 32.175781 3.214844 L 31.921875 3.417969 C 31.773438 3.570312 31.46875 3.871094 31.015625 4.425781 C 31.320312 4.023438 31.773438 3.519531 32.226562 3.164062 C 32.78125 2.660156 33.386719 2.308594 33.839844 2.105469 C 34.292969 1.90625 34.496094 1.855469 34.34375 1.90625 Z M 31.066406 4.375 C 31.015625 4.476562 30.914062 4.578125 30.863281 4.679688 C 30.914062 4.578125 31.015625 4.476562 31.066406 4.375 Z M 40.34375 1.804688 C 40.445312 1.804688 40.59375 1.90625 40.695312 1.957031 C 40.59375 1.957031 40.496094 1.855469 40.34375 1.804688 Z M 40.695312 1.957031 C 42.007812 2.511719 43.21875 3.164062 44.375 4.023438 C 43.21875 3.214844 41.957031 2.511719 40.59375 2.007812 C 40.644531 2.007812 41.199219 2.207031 40.695312 2.007812 Z M 44.375 3.972656 C 44.832031 4.273438 45.234375 4.578125 45.636719 4.929688 L 45.988281 5.285156 C 45.484375 4.828125 44.929688 4.425781 44.375 4.023438 Z M 61.417969 18.039062 C 62.777344 19.199219 64.34375 20.457031 66.054688 21.820312 C 64.191406 20.359375 62.222656 18.84375 60.410156 17.332031 C 60.15625 17.082031 59.402344 16.425781 61.367188 18.039062 Z M 54.5625 12.441406 C 54.660156 12.542969 54.761719 12.644531 54.863281 12.695312 C 54.660156 12.542969 54.511719 12.441406 54.5625 12.441406 Z M 83.25 35.484375 C 83.148438 35.484375 83.046875 35.332031 82.945312 35.28125 L 82.894531 35.28125 C 82.894531 35.28125 83.25 35.484375 83.25 35.484375 Z M 60.105469 17.132812 C 58.695312 16.023438 57.886719 15.316406 57.132812 14.660156 C 58.191406 15.519531 59.25 16.425781 60.460938 17.382812 C 60.5625 17.484375 60.5625 17.535156 60.15625 17.132812 Z M 69.382812 24.339844 C 70.140625 24.894531 71.601562 26.003906 71.855469 26.207031 C 71.097656 25.652344 70.242188 24.996094 69.382812 24.339844 Z M 55.316406 13.046875 C 55.265625 12.996094 55.167969 12.945312 55.117188 12.894531 C 55.570312 13.25 55.519531 13.199219 55.316406 13.046875 Z M 55.316406 13.046875 C 56.023438 13.652344 56.578125 14.105469 57.132812 14.609375 C 56.324219 13.90625 55.519531 13.25 54.863281 12.695312 C 55.015625 12.847656 55.214844 12.945312 55.367188 13.046875 Z M 76.84375 30.339844 L 75.535156 29.28125 C 77.046875 30.492188 78.15625 31.296875 80.222656 32.863281 C 82.390625 34.675781 82.84375 35.078125 82.945312 35.230469 L 76.390625 29.988281 Z M 71.652344 26.558594 C 67.71875 23.484375 68.980469 24.339844 66.660156 22.476562 C 72.964844 27.46875 64.898438 21.011719 69.484375 24.542969 C 68.273438 23.535156 67.164062 22.675781 66.105469 21.820312 C 67.265625 22.726562 68.375 23.535156 69.382812 24.339844 C 69.332031 24.339844 69.28125 24.339844 69.234375 24.242188 C 68.929688 24.039062 68.878906 23.988281 69.183594 24.242188 C 69.183594 24.242188 69.28125 24.339844 69.332031 24.339844 C 69.332031 24.339844 69.484375 24.492188 69.585938 24.59375 C 71.449219 26.003906 69.886719 24.792969 69.332031 24.339844 L 69.28125 24.339844 C 69.28125 24.339844 75.585938 29.332031 75.585938 29.332031 C 74.222656 28.273438 72.558594 26.960938 69.585938 24.59375 C 70.542969 25.5 73.769531 28.023438 71.703125 26.558594 Z M 36.8125 1.601562 L 37.066406 1.601562 C 37.570312 1.601562 37.773438 1.601562 36.8125 1.601562 Z M 43.570312 3.621094 C 43.621094 3.621094 43.671875 3.621094 43.722656 3.71875 C 43.820312 3.71875 43.722656 3.71875 43.570312 3.621094 Z M 35.050781 1.804688 C 34.847656 1.855469 34.796875 1.855469 35 1.804688 C 35.199219 1.703125 35.703125 1.550781 36.613281 1.503906 L 37.21875 1.503906 C 38.882812 1.503906 40.695312 2.207031 41.957031 2.761719 C 42.714844 3.117188 43.316406 3.46875 43.570312 3.621094 C 42.761719 3.214844 42.007812 2.761719 40.039062 2.15625 C 39.789062 2.058594 39.535156 1.957031 39.082031 1.855469 C 38.679688 1.753906 38.074219 1.550781 37.117188 1.550781 C 35.453125 1.601562 37.117188 1.550781 37.015625 1.601562 C 36.460938 1.601562 35.402344 1.703125 35 1.804688 Z M 55.117188 13.25 C 56.828125 14.710938 58.542969 16.125 60.257812 17.535156 L 57.535156 15.46875 L 57.6875 15.46875 C 54.710938 13.148438 55.417969 13.601562 55.066406 13.25 Z M 83.25 35.28125 L 86.171875 37.851562 L 83.902344 35.9375 L 83.300781 35.28125 Z M 90.40625 41.230469 C 90.960938 41.734375 91.566406 42.238281 92.121094 42.792969 L 90.609375 41.535156 L 90.40625 41.28125 Z M 155.496094 141.964844 L 156.101562 142.621094 C 157.261719 144.234375 158.167969 145.492188 158.925781 146.550781 C 157.210938 144.234375 155.246094 141.761719 155.496094 141.964844 Z M 152.671875 113.882812 C 151.007812 111.359375 149.597656 109.445312 149.246094 108.738281 C 150.65625 110.808594 151.714844 112.421875 152.671875 113.882812 Z M 124.085938 112.066406 C 124.84375 112.972656 125.195312 113.429688 125.144531 113.378906 C 124.339844 112.421875 123.933594 111.867188 124.085938 112.066406 Z M 156.402344 119.984375 C 156.152344 119.628906 155.949219 119.226562 155.699219 118.875 C 154.789062 117.308594 153.832031 115.746094 152.621094 113.882812 C 153.832031 115.746094 155.195312 117.863281 156.402344 119.984375 Z M 54.5625 88.722656 C 54.460938 88.574219 54.308594 88.421875 54.15625 88.21875 C 54.308594 88.371094 54.410156 88.574219 54.5625 88.722656 Z M 53 86.910156 C 52.796875 86.707031 52.644531 86.503906 52.492188 86.304688 C 52.644531 86.503906 52.847656 86.707031 53 86.910156 Z M 54.15625 88.269531 C 53.855469 87.917969 53.503906 87.464844 53.046875 86.910156 C 53.402344 87.3125 53.753906 87.765625 54.15625 88.269531 Z M 53 86.910156 Z M 115.566406 66.1875 C 114.304688 64.824219 115.363281 65.984375 115.566406 66.1875 Z M 109.667969 60.390625 C 109.566406 60.238281 109.414062 60.085938 109.214844 59.835938 C 109.464844 60.136719 109.667969 60.339844 109.667969 60.390625 Z M 115.261719 65.886719 C 115.0625 65.632812 114.859375 65.429688 114.609375 65.230469 Z M 113.648438 64.171875 C 114.054688 64.625 114.355469 64.925781 114.660156 65.230469 C 114.304688 64.875 113.953125 64.523438 113.648438 64.171875 Z M 113.953125 64.421875 C 113.5 63.96875 113.195312 63.566406 112.84375 63.261719 C 112.691406 63.0625 112.84375 63.261719 113.953125 64.421875 Z M 115.566406 66.1875 C 115.917969 66.589844 116.421875 67.144531 117.28125 68.101562 C 116.574219 67.347656 115.917969 66.589844 115.261719 65.886719 C 115.515625 66.136719 115.617188 66.238281 115.566406 66.1875 Z M 203.242188 241.589844 C 204.097656 242.34375 204.90625 243.152344 205.710938 243.90625 C 206.46875 244.714844 207.476562 245.472656 207.476562 246.378906 C 207.476562 247.285156 207.273438 247.234375 207.074219 247.890625 C 206.871094 248.496094 206.769531 249.152344 206.921875 249.808594 C 207.074219 250.460938 207.425781 251.015625 207.878906 251.472656 C 208.332031 251.925781 208.835938 252.226562 209.390625 252.53125 C 210.449219 253.085938 211.914062 253.234375 213.074219 252.679688 C 214.183594 252.125 215.140625 251.167969 215.492188 249.90625 C 215.847656 248.648438 215.492188 247.335938 214.886719 246.277344 C 214.535156 245.722656 214.132812 245.269531 213.527344 244.917969 C 212.972656 244.5625 212.316406 244.414062 211.660156 244.414062 C 211.003906 244.414062 211.003906 244.414062 210.703125 244.511719 C 210.449219 244.511719 210.148438 244.613281 209.945312 244.5625 C 209.441406 244.5625 209.039062 244.3125 208.6875 243.90625 C 208.332031 243.503906 208.082031 243 207.730469 242.496094 L 206.820312 240.984375 C 206.820312 241.285156 199.761719 229.640625 200.46875 231.203125 L 200.871094 231.808594 C 202.082031 233.773438 201.878906 233.523438 201.125 232.363281 C 200.769531 231.757812 200.214844 231 199.660156 230.144531 C 199.410156 229.742188 199.105469 229.238281 198.804688 228.882812 C 198.453125 228.480469 198.046875 228.179688 197.644531 227.976562 C 198.097656 228.179688 198.300781 228.378906 198.351562 228.429688 C 198.453125 228.480469 198.351562 228.429688 198.25 228.328125 C 198 228.078125 197.394531 227.722656 196.839844 227.574219 C 196.335938 227.371094 196.03125 227.21875 196.382812 227.371094 C 196.535156 227.421875 196.890625 227.523438 197.492188 227.773438 C 198.097656 228.027344 198.90625 228.632812 199.511719 229.691406 C 199.207031 229.136719 198.804688 228.632812 198.25 228.179688 C 197.746094 227.773438 197.039062 227.523438 196.535156 227.320312 C 195.425781 226.917969 194.46875 226.160156 194.117188 225.050781 C 194.015625 224.597656 193.964844 223.992188 194.117188 223.289062 C 194.214844 222.933594 194.417969 222.582031 194.621094 222.179688 C 194.820312 221.824219 195.277344 221.371094 195.527344 220.765625 C 195.78125 220.109375 195.679688 219.253906 195.375 218.699219 C 195.074219 218.09375 194.722656 217.589844 194.417969 216.984375 C 193.710938 215.875 193.007812 214.667969 192.25 213.40625 C 189.175781 208.464844 185.644531 202.769531 182.824219 197.925781 C 183.226562 198.632812 183.328125 198.785156 183.328125 198.886719 C 180.753906 194.601562 177.933594 189.808594 175.5625 185.828125 C 173.191406 181.84375 171.378906 178.667969 170.824219 177.660156 L 170.269531 176.953125 C 169.261719 175.089844 168.453125 173.625 167.699219 172.367188 C 166.992188 171.105469 166.335938 170.046875 165.679688 168.9375 C 164.320312 166.71875 162.855469 164.351562 160.085938 160.113281 C 160.132812 160.214844 160.738281 161.222656 159.882812 159.914062 C 158.621094 157.847656 157.363281 155.726562 153.328125 149.980469 L 153.480469 150.234375 C 151.414062 147.257812 149.296875 144.285156 147.128906 141.410156 C 147.078125 141.460938 146.371094 140.554688 145.261719 139.140625 C 144.203125 137.730469 142.742188 135.761719 141.179688 133.746094 C 138.101562 129.664062 134.675781 125.378906 133.515625 124.21875 C 132.253906 122.503906 127.210938 116.300781 124.992188 113.578125 C 124.992188 113.578125 124.792969 113.429688 124.4375 112.972656 C 121.867188 109.648438 116.574219 103.796875 113.5 100.320312 C 111.53125 98 112.441406 98.957031 113.347656 99.917969 C 109.3125 95.53125 102.507812 87.515625 100.945312 85.949219 C 97.96875 82.722656 99.734375 84.839844 98.878906 83.984375 C 94.492188 79.195312 99.835938 84.589844 93.835938 78.238281 C 94.492188 78.992188 95.800781 80.355469 95.246094 79.851562 C 92.980469 77.429688 88.59375 73.347656 86.375 70.875 L 87.9375 72.4375 C 83.851562 67.953125 77.804688 62.203125 77.300781 61.347656 L 77.753906 61.699219 C 70.390625 54.289062 74.726562 58.472656 67.214844 50.960938 L 67.316406 51.0625 C 64.089844 47.734375 62.222656 46.070312 60.761719 44.304688 L 61.871094 45.414062 C 57.839844 41.332031 57.484375 40.980469 53.351562 36.84375 C 52.898438 36.339844 50.878906 34.324219 50.324219 33.769531 C 50.324219 33.769531 50.023438 33.417969 49.570312 32.910156 C 52.492188 35.433594 55.769531 38.457031 56.828125 39.414062 C 53.453125 36.289062 55.066406 37.703125 56.074219 38.558594 C 57.988281 40.472656 59.402344 41.785156 62.222656 44.253906 C 62.527344 44.761719 62.929688 45.414062 68.425781 50.40625 C 67.570312 49.601562 66.257812 48.390625 66.8125 48.84375 C 67.417969 49.347656 68.628906 50.507812 69.082031 50.910156 C 69.636719 51.363281 67.921875 49.75 68.578125 50.253906 C 72.207031 53.785156 74.980469 56.105469 80.324219 61.09375 C 78.660156 59.480469 80.121094 60.792969 80.777344 61.347656 C 81.082031 61.902344 88.238281 68.003906 86.019531 66.289062 C 91.316406 71.078125 97.917969 77.328125 103.617188 82.875 C 109.3125 88.472656 114.152344 93.363281 116.171875 95.277344 C 117.28125 96.335938 119.953125 99.261719 121.667969 101.074219 L 121.515625 100.773438 C 126.152344 105.964844 125.195312 104.757812 130.539062 110.957031 C 128.371094 108.386719 129.328125 109.394531 131.648438 111.867188 L 135.179688 116.25 L 135.984375 117.007812 C 137.445312 118.824219 139.058594 120.789062 140.722656 122.753906 C 139.917969 121.796875 140.371094 122.300781 140.421875 122.351562 C 141.078125 123.410156 147.328125 131.277344 148.1875 132.535156 C 149.898438 134.402344 152.21875 137.929688 153.480469 139.292969 C 153.933594 139.949219 154.589844 140.855469 155.246094 141.8125 C 154.488281 140.90625 154.136719 140.601562 155.496094 142.367188 C 155.597656 142.519531 155.699219 142.671875 155.796875 142.820312 L 156.453125 143.578125 C 157.765625 145.492188 159.125 147.410156 159.984375 148.671875 C 159.582031 148.117188 159.074219 147.460938 158.570312 146.753906 C 159.175781 147.5625 159.679688 148.316406 160.234375 149.023438 C 160.4375 149.273438 160.589844 149.527344 160.6875 149.679688 C 160.589844 149.578125 160.539062 149.425781 160.386719 149.273438 C 161.195312 150.433594 162.050781 151.644531 163.109375 153.308594 C 165.429688 156.636719 167.796875 160.417969 170.066406 164.398438 C 170.621094 165.410156 171.226562 166.417969 171.78125 167.375 C 172.335938 168.382812 172.890625 169.390625 173.394531 170.398438 C 173.949219 171.40625 174.503906 172.417969 175.058594 173.425781 C 175.308594 173.929688 175.613281 174.433594 175.863281 174.886719 L 176.066406 175.238281 L 176.167969 175.441406 C 176.167969 175.542969 176.269531 175.644531 176.320312 175.742188 C 176.320312 175.894531 176.46875 176.046875 176.519531 176.199219 C 176.367188 175.945312 176.269531 175.644531 176.117188 175.441406 C 175.914062 175.140625 175.765625 174.785156 175.613281 174.484375 C 175.261719 173.878906 175.007812 173.324219 174.90625 173.121094 C 175.359375 173.980469 175.8125 174.785156 176.269531 175.644531 C 176.417969 175.996094 176.570312 176.347656 176.773438 176.550781 C 176.972656 176.804688 177.125 176.953125 177.378906 177.054688 C 177.882812 177.257812 178.636719 176.902344 178.789062 176.449219 C 178.890625 176.199219 178.890625 175.945312 178.890625 175.644531 C 178.890625 175.339844 178.738281 174.9375 178.6875 174.636719 C 178.6875 174.179688 178.535156 173.726562 178.488281 173.324219 C 178.335938 172.46875 178.183594 171.609375 177.980469 170.753906 C 177.328125 167.425781 176.570312 164.5 176.066406 162.183594 L 176.269531 162.484375 C 174.957031 157.140625 173.847656 153.105469 172.636719 148.820312 L 172.636719 148.570312 C 171.78125 145.492188 170.371094 140.652344 168.957031 136.117188 C 167.496094 131.578125 165.984375 127.445312 165.175781 125.628906 C 165.023438 125.226562 164.722656 124.367188 164.320312 123.308594 C 164.117188 122.804688 163.914062 122.199219 163.5625 121.546875 C 163.511719 121.394531 163.410156 121.242188 163.363281 121.042969 L 163.363281 120.738281 C 163.261719 120.585938 163.210938 120.4375 163.109375 120.335938 C 162.957031 120.082031 162.808594 119.933594 162.605469 119.78125 C 162.402344 119.679688 162.152344 119.628906 161.847656 119.628906 C 161.546875 119.628906 161.09375 119.882812 160.839844 120.183594 C 160.589844 120.488281 160.539062 120.992188 160.488281 121.445312 C 160.4375 122 160.386719 122.554688 160.335938 123.058594 C 160.234375 124.117188 160.132812 125.023438 160.085938 125.882812 L 160.085938 126.484375 C 160.035156 126.6875 159.679688 126.738281 159.582031 126.535156 C 159.53125 126.535156 159.277344 125.628906 158.976562 125.277344 C 158.472656 124.417969 158.015625 123.664062 157.613281 122.90625 C 156.757812 121.445312 156.050781 120.183594 155.292969 118.972656 C 150.152344 110.804688 145.210938 103.34375 140.167969 96.589844 L 140.117188 96.589844 C 138.457031 94.21875 136.742188 91.949219 134.976562 89.683594 C 136.289062 91.496094 133.96875 88.320312 132.355469 86.304688 C 130.691406 84.136719 127.867188 80.757812 125.75 78.335938 C 124.589844 76.925781 123.378906 75.566406 122.222656 74.203125 C 126.152344 78.84375 121.867188 73.953125 121.566406 73.75 L 119.347656 71.078125 C 118.390625 70.070312 120.757812 72.792969 119.042969 70.875 C 117.53125 69.113281 112.894531 64.019531 111.53125 62.355469 C 111.785156 62.609375 112.390625 63.164062 113.09375 63.917969 C 113.230469 64.054688 113.246094 64.054688 113.144531 63.917969 C 113.195312 63.917969 113.246094 64.019531 113.296875 64.070312 C 113.230469 64.003906 113.164062 63.933594 113.09375 63.867188 C 112.894531 63.667969 112.589844 63.3125 112.492188 63.164062 C 109.515625 59.984375 110.625 61.144531 110.777344 61.246094 C 107.296875 57.769531 105.480469 55.699219 102.710938 53.128906 C 104.574219 54.894531 102.609375 52.878906 100.441406 50.710938 C 99.332031 49.652344 98.171875 48.542969 97.464844 47.835938 C 96.710938 47.128906 96.40625 46.828125 97.0625 47.332031 C 94.238281 45.011719 95.199219 45.617188 93.332031 44.207031 C 97.214844 47.582031 100.84375 51.265625 103.71875 54.238281 L 100.742188 51.414062 C 102.40625 53.28125 106.589844 57.3125 108.457031 59.332031 C 107.347656 58.121094 105.484375 56.203125 105.078125 55.902344 L 105.886719 56.558594 C 109.96875 60.742188 113.046875 64.171875 115.765625 67.296875 C 113.09375 64.421875 118.894531 70.875 116.925781 68.808594 L 114.859375 66.539062 C 114.660156 66.339844 114.609375 66.304688 114.707031 66.4375 C 111.433594 62.859375 108.105469 59.332031 104.726562 55.800781 C 104.777344 55.800781 104.828125 55.902344 104.929688 56.003906 C 104.828125 55.902344 104.726562 55.800781 104.625 55.699219 C 104.273438 55.296875 103.867188 54.945312 103.515625 54.539062 C 99.734375 50.660156 95.601562 46.828125 91.214844 43.046875 C 90.863281 42.59375 85.316406 37.800781 86.929688 39.0625 C 84.863281 37.398438 85.566406 38.054688 81.332031 34.574219 C 78.660156 32.308594 84.710938 37.097656 85.871094 38.003906 C 82.695312 35.332031 82.746094 35.332031 82.644531 35.230469 C 79.871094 33.214844 77.753906 31.851562 80.425781 34.121094 C 78.914062 32.910156 77.449219 31.753906 75.9375 30.542969 C 76.894531 31.296875 75.6875 30.289062 74.023438 28.929688 L 73.871094 28.929688 C 74.023438 28.929688 74.222656 29.128906 74.375 29.28125 C 64.644531 21.617188 54.863281 14.054688 46.394531 6.390625 C 44.277344 4.476562 42.007812 2.914062 39.285156 2.054688 C 35.65625 0.898438 32.628906 2.054688 30.5625 5.285156 C 28.34375 8.8125 27.636719 12.796875 27.183594 16.828125 C 25.621094 31.398438 29.25 44.609375 36.8125 57.0625 C 42.914062 67.042969 49.621094 76.472656 57.789062 84.839844 C 58.242188 85.347656 58.644531 85.851562 59.097656 86.355469 L 58.847656 86.101562 C 58.847656 86.050781 57.585938 84.992188 57.585938 84.992188 L 56.78125 84.589844 C 57.183594 84.890625 58.140625 85.546875 58.796875 86.101562 C 58.746094 86.152344 58.644531 86.253906 58.59375 86.304688 C 58.695312 86.203125 58.59375 86.304688 58.847656 86.152344 L 58.847656 86.554688 C 58.695312 86.453125 58.542969 86.355469 58.394531 86.253906 C 58.394531 86.253906 58.34375 86.152344 58.292969 86.101562 C 58.292969 86.101562 57.789062 85.546875 58.191406 86.101562 C 55.769531 84.285156 53.300781 82.472656 50.878906 80.65625 C 51.03125 80.757812 51.234375 80.910156 51.382812 81.011719 C 53.046875 82.121094 54.308594 82.976562 52.644531 81.613281 L 55.265625 83.582031 C 54.863281 83.179688 52.796875 81.664062 50.679688 80.050781 C 50.375 79.851562 50.175781 79.648438 49.820312 79.445312 C 49.46875 79.195312 49.117188 78.992188 48.8125 78.742188 C 48.664062 78.640625 48.460938 78.488281 48.308594 78.4375 C 48.15625 78.386719 48.007812 78.289062 47.855469 78.289062 C 47.554688 78.1875 47.199219 78.386719 47 78.691406 C 46.796875 78.992188 46.796875 79.296875 46.898438 79.546875 C 46.949219 79.800781 47.097656 80.050781 47.25 80.253906 C 47.503906 80.605469 47.753906 80.859375 47.855469 81.058594 L 54.863281 89.175781 C 54.613281 88.925781 55.671875 90.335938 54.5625 89.027344 C 55.417969 90.085938 56.226562 90.941406 56.527344 91.296875 C 56.828125 91.648438 56.628906 91.445312 55.46875 90.234375 C 62.125 97.496094 68.878906 104.808594 75.6875 112.066406 C 79.113281 115.695312 82.542969 119.277344 85.921875 122.90625 C 87.632812 124.671875 89.347656 126.484375 91.0625 128.25 L 93.632812 130.921875 L 94.894531 132.234375 C 95.148438 132.484375 95.347656 132.789062 95.550781 133.039062 L 93.382812 133.039062 C 92.375 132.941406 91.417969 132.941406 90.40625 132.890625 C 89.398438 132.890625 88.441406 132.789062 87.433594 132.789062 L 85.972656 132.789062 C 85.367188 132.789062 84.660156 132.890625 84.003906 132.941406 C 83.902344 132.988281 83.851562 133.039062 83.753906 133.140625 C 83.753906 133.292969 83.753906 133.496094 83.804688 133.644531 C 83.851562 134 84.054688 134.25 84.308594 134.453125 C 84.558594 134.652344 84.960938 134.804688 85.265625 135.007812 L 86.019531 135.410156 C 87.433594 136.265625 86.574219 135.8125 86.019531 135.511719 C 90.003906 137.628906 89.703125 137.730469 91.820312 138.988281 L 97.617188 142.117188 C 99.886719 143.527344 98.070312 142.519531 98.222656 142.621094 C 108.960938 148.921875 119.597656 154.820312 128.269531 160.015625 C 128.574219 160.214844 128.925781 160.367188 129.128906 160.417969 C 129.328125 160.46875 129.429688 160.519531 129.480469 160.519531 C 129.546875 160.519531 129.566406 160.519531 129.53125 160.519531 L 129.734375 160.519531 C 129.835938 160.617188 129.933594 160.667969 130.035156 160.921875 C 130.035156 161.074219 130.035156 161.273438 129.933594 161.425781 C 129.933594 161.375 129.984375 161.273438 130.035156 161.222656 L 130.035156 161.023438 C 130.035156 161.023438 130.035156 161.121094 129.933594 161.375 C 129.882812 161.476562 129.785156 161.527344 129.53125 161.578125 L 128.574219 161.578125 C 127.867188 161.675781 127.0625 161.828125 126.203125 161.980469 C 125.347656 162.132812 124.589844 162.230469 123.734375 162.433594 C 123.332031 162.535156 122.675781 162.835938 122.625 163.339844 C 122.523438 163.796875 122.824219 164.300781 123.027344 164.550781 C 123.429688 165.054688 123.734375 165.257812 123.785156 165.359375 C 123.886719 165.457031 123.785156 165.359375 123.429688 165.105469 C 124.992188 166.46875 127.917969 168.988281 130.4375 170.703125 C 133.011719 172.46875 135.128906 173.476562 134.371094 172.921875 C 136.589844 174.128906 137.597656 174.535156 137.800781 174.636719 C 137.953125 174.734375 137.648438 174.636719 137.195312 174.484375 C 139.714844 175.59375 142.1875 176.347656 144.554688 176.800781 C 147.027344 177.308594 149.296875 178.011719 151.464844 178.96875 C 152.21875 179.273438 154.136719 180.03125 156.503906 181.441406 C 158.875 182.800781 161.648438 184.769531 164.320312 186.988281 C 165.628906 188.097656 166.941406 189.253906 168.203125 190.414062 C 168.804688 190.96875 169.410156 191.574219 170.015625 192.128906 C 170.621094 192.683594 171.074219 193.238281 171.429688 193.894531 C 172.082031 195.15625 172.4375 196.515625 172.789062 197.625 C 173.140625 198.734375 173.546875 199.589844 173.796875 200.195312 C 172.386719 196.917969 173.796875 200.5 174.957031 203.726562 L 173.746094 200.851562 L 176.46875 208.113281 C 176.722656 208.867188 176.921875 209.320312 177.023438 209.625 C 177.125 209.925781 177.175781 210.027344 177.175781 210.027344 C 177.628906 211.238281 177.175781 209.726562 178.335938 212.800781 C 180.199219 217.742188 180.199219 217.992188 181.160156 220.765625 L 180.855469 220.011719 L 182.117188 223.386719 C 183.023438 225.859375 178.941406 214.617188 182.117188 222.632812 C 182.117188 222.683594 182.519531 223.941406 183.023438 225.40625 C 183.277344 226.160156 183.578125 226.96875 183.832031 227.671875 C 184.132812 228.429688 184.386719 229.136719 184.6875 229.691406 C 184.132812 228.632812 183.980469 227.875 183.730469 227.371094 C 183.527344 226.867188 183.476562 226.566406 183.425781 226.464844 C 183.425781 226.261719 183.578125 226.765625 183.882812 227.523438 C 184.234375 228.480469 184.535156 229.488281 185.242188 230.394531 C 185.898438 231.304688 186.957031 231.808594 187.964844 232.109375 C 187.308594 231.960938 186.605469 231.707031 185.949219 231.304688 C 186.453125 231.65625 187.007812 231.960938 187.5625 232.109375 L 189.125 232.664062 C 190.132812 233.066406 191.140625 233.472656 192.148438 233.976562 C 194.117188 234.933594 196.03125 236.09375 197.847656 237.402344 C 199.660156 238.714844 201.375 240.125 203.039062 241.640625 L 203.242188 241.539062 Z M 175.109375 158.601562 C 174.753906 157.292969 174.402344 156.03125 174.050781 154.71875 C 173.847656 153.914062 173.597656 153.15625 173.394531 152.351562 L 173.394531 151.542969 C 173.394531 151.542969 173.140625 151.441406 173.140625 151.441406 C 172.539062 149.324219 171.933594 147.207031 171.328125 145.089844 C 171.328125 145.140625 171.429688 145.34375 171.578125 145.746094 C 172.285156 147.8125 174.90625 156.6875 175.109375 157.339844 C 175.261719 158.148438 175.261719 158.550781 175.109375 158.550781 Z M 166.335938 156.636719 C 168.152344 159.507812 169.964844 162.382812 171.679688 165.308594 C 172.234375 166.316406 172.738281 167.273438 173.191406 168.179688 C 173.898438 169.59375 174.453125 170.855469 174.855469 171.660156 C 173.898438 169.894531 173.042969 168.132812 172.082031 166.367188 L 171.277344 165.105469 C 169.511719 162.03125 167.796875 159.054688 166.386719 156.585938 L 166.335938 156.585938 Z M 163.613281 122.101562 C 163.816406 122.503906 164.015625 122.957031 163.964844 122.753906 C 164.46875 124.117188 165.023438 125.730469 165.53125 127.140625 C 164.925781 125.527344 164.371094 123.914062 163.714844 122.351562 C 163.714844 122.25 163.664062 122.199219 163.613281 122.101562 Z M 128.925781 81.664062 L 128.824219 81.566406 C 130.1875 83.179688 130.894531 83.984375 128.925781 81.664062 Z M 128.625 107.730469 C 129.632812 108.890625 130.691406 110 131.699219 111.160156 C 131.449219 111.007812 131.296875 110.90625 131.496094 111.261719 Z M 128.925781 81.867188 C 132.304688 85.851562 133.617188 87.613281 135.027344 89.53125 C 136.488281 91.496094 138.050781 93.664062 141.832031 98.707031 C 142.488281 99.664062 140.421875 96.488281 144.304688 101.984375 C 146.722656 105.460938 148.691406 108.539062 150.050781 110.757812 C 150.554688 111.5625 150.910156 112.21875 151.261719 112.773438 C 148.992188 109.292969 146.671875 105.816406 144.304688 102.4375 C 141.53125 98.503906 138.605469 94.621094 135.683594 90.839844 C 136.386719 91.75 136.992188 92.453125 137.296875 92.910156 C 136.035156 91.34375 133.816406 88.472656 132.757812 87.058594 C 133.714844 88.21875 134.675781 89.429688 135.632812 90.589844 C 133.363281 87.664062 131.449219 85.445312 127.96875 81.210938 C 128.625 81.867188 126.203125 78.742188 128.925781 81.867188 Z M 87.835938 39.921875 C 87.988281 40.019531 88.089844 40.171875 88.238281 40.273438 C 88.089844 40.171875 87.988281 40.019531 87.835938 39.921875 Z M 81.230469 34.523438 C 83.199219 36.039062 85.316406 37.800781 86.625 38.910156 C 84.863281 37.449219 83.046875 35.988281 81.230469 34.523438 Z M 55.871094 37.851562 C 56.425781 38.308594 57.183594 38.960938 58.039062 39.71875 C 58.441406 40.070312 58.847656 40.472656 59.300781 40.828125 C 59.753906 41.28125 60.207031 41.683594 60.609375 42.089844 C 60.410156 41.886719 60.207031 41.683594 60.007812 41.484375 C 60.914062 42.289062 61.820312 43.148438 62.730469 43.953125 C 62.730469 43.953125 62.375 43.703125 61.570312 42.996094 C 61.316406 42.742188 60.964844 42.390625 60.609375 42.039062 C 61.46875 42.894531 61.972656 43.449219 61.316406 42.84375 L 55.871094 37.753906 Z M 59.550781 86.554688 C 59.453125 86.65625 59.402344 86.707031 59.300781 86.808594 C 59.25 86.808594 59.199219 86.707031 59.148438 86.707031 L 59.148438 86.253906 C 59.300781 86.355469 59.351562 86.40625 59.453125 86.457031 C 59.453125 86.457031 59.5 86.554688 59.550781 86.554688 Z M 177.628906 210.429688 L 177.175781 209.320312 C 176.921875 208.617188 176.671875 207.859375 177.628906 210.429688 Z M 176.972656 176.046875 C 176.972656 176.148438 177.074219 176.25 177.175781 176.347656 C 177.175781 176.25 177.023438 176.148438 176.972656 176.046875 Z M 102.710938 52.523438 C 102.609375 52.421875 102.507812 52.324219 102.40625 52.222656 C 102.558594 52.375 102.609375 52.421875 102.710938 52.523438 Z M 102.660156 52.574219 C 102.710938 52.574219 103.164062 52.976562 102.710938 52.574219 C 103.363281 53.230469 104.019531 53.886719 104.625 54.539062 C 103.71875 53.582031 103.214844 53.179688 102.660156 52.574219 Z M 104.675781 54.539062 C 104.878906 54.742188 105.078125 54.945312 105.230469 55.144531 C 105.027344 54.945312 104.828125 54.742188 104.675781 54.539062 Z M 95.703125 46.421875 C 95.148438 45.769531 97.367188 47.785156 99.484375 49.902344 C 99.179688 49.75 97.414062 47.988281 95.296875 46.121094 C 95.398438 46.222656 95.550781 46.324219 95.652344 46.472656 Z M 92.929688 43.953125 C 92.726562 43.703125 93.734375 44.609375 94.894531 45.667969 C 94.238281 45.0625 93.582031 44.507812 92.929688 43.953125 Z M 119.597656 70.726562 C 118.691406 69.765625 119.144531 70.019531 118.589844 69.464844 C 117.683594 68.253906 124.390625 76.21875 119.597656 70.726562 Z M 97.667969 48.542969 L 98.472656 49.144531 L 99.535156 50.304688 Z M 111.984375 63.0625 C 112.742188 63.867188 113.195312 64.421875 113.195312 64.371094 L 110.121094 61.09375 C 110.171875 61.09375 109.816406 60.691406 109.3125 60.1875 C 110.273438 61.195312 111.230469 62.253906 111.984375 63.0625 Z M 109.3125 60.1875 C 108.304688 59.128906 107.398438 58.171875 106.84375 57.566406 C 107.398438 58.121094 108.507812 59.332031 109.3125 60.1875 Z M 143.800781 101.582031 C 144.757812 102.890625 145.664062 104.253906 146.574219 105.613281 C 146.824219 106.066406 146.066406 104.957031 145.007812 103.445312 C 144.355469 102.488281 143.296875 100.976562 143.800781 101.582031 Z M 51.382812 80.203125 L 54.410156 82.421875 L 52.445312 81.058594 L 51.382812 80.253906 Z M 1.320312 201.105469 C 0.515625 201.105469 0.816406 201.105469 0.664062 201.105469 C 1.371094 201.003906 1.523438 201.105469 1.472656 201.105469 C 1.472656 201.105469 1.269531 201.105469 1.320312 201.105469 Z M 11.605469 204.734375 L 13.066406 205.441406 L 11.757812 204.835938 Z M 15.789062 206.597656 L 15.085938 206.144531 C 17.101562 207.054688 19.671875 208.3125 21.132812 208.917969 C 20.175781 208.667969 17.808594 207.304688 16.09375 206.648438 L 15.789062 206.550781 Z M 26.277344 211.136719 C 26.277344 211.136719 25.972656 210.984375 25.015625 210.480469 C 25.117188 210.480469 25.167969 210.53125 25.21875 210.582031 C 25.417969 210.683594 25.671875 210.835938 26.175781 211.035156 C 26.023438 211.035156 26.277344 211.136719 26.277344 211.136719 Z M 26.277344 211.136719 Z M 25.21875 210.582031 C 24.261719 210.078125 25.875 210.835938 25.21875 210.582031 Z M 29.402344 212.546875 C 30.664062 213.203125 30.410156 213.101562 29.65625 212.800781 L 28.394531 212.144531 C 28.695312 212.246094 29.804688 212.800781 29.402344 212.546875 Z M 30.160156 213.152344 C 30.261719 213.152344 30.460938 213.253906 30.816406 213.507812 Z M 28.796875 212.449219 L 30.160156 213.152344 C 29.957031 213.101562 29.90625 213.152344 29.554688 212.851562 C 29.65625 212.953125 29.402344 212.800781 28.796875 212.449219 Z M 27.585938 211.992188 C 25.167969 210.785156 25.570312 210.835938 27.992188 212.09375 C 27.285156 211.742188 26.328125 211.339844 27.585938 211.992188 Z M 19.722656 208.464844 C 20.125 208.667969 21.589844 209.273438 21.488281 209.320312 L 20.53125 208.917969 Z M 37.722656 216.027344 C 37.773438 216.078125 37.269531 215.976562 37.117188 216.027344 L 36.160156 215.625 C 36.664062 215.773438 37.621094 216.078125 37.722656 216.027344 Z M 37.167969 215.976562 L 38.628906 216.480469 C 37.316406 216.078125 37.066406 215.976562 37.167969 215.976562 Z M 28.695312 212.546875 C 29.605469 213.054688 30.460938 213.507812 31.367188 213.960938 L 30.914062 213.757812 L 28.648438 212.546875 Z M 43.417969 217.488281 L 42.5625 217.238281 C 43.066406 217.386719 43.570312 217.539062 44.074219 217.640625 Z M 50.277344 218.347656 C 49.417969 218.296875 48.511719 218.195312 47.300781 218.144531 C 46.644531 217.992188 48.207031 218.144531 47.503906 218.042969 C 48.5625 218.144531 49.46875 218.296875 50.277344 218.398438 Z M 50.277344 218.347656 C 50.730469 218.347656 51.183594 218.398438 51.636719 218.496094 C 51.234375 218.496094 50.78125 218.398438 50.277344 218.347656 Z M 42.359375 217.339844 L 41.753906 217.339844 C 41.554688 217.238281 41.351562 217.238281 41.148438 217.1875 C 41.25 217.1875 41.503906 217.1875 42.359375 217.339844 Z M 41.703125 217.339844 C 42.359375 217.488281 42.8125 217.589844 42.964844 217.640625 C 42.8125 217.640625 42.410156 217.539062 41.652344 217.339844 Z M 34.746094 215.269531 C 35.554688 215.625 37.367188 216.328125 35.605469 215.773438 C 35 215.472656 36.007812 215.773438 34.746094 215.269531 Z M 38.578125 216.53125 C 39.132812 216.734375 39.6875 216.882812 40.242188 217.085938 C 39.6875 216.933594 39.183594 216.835938 38.628906 216.683594 C 38.628906 216.683594 38.980469 216.683594 38.527344 216.582031 L 38.578125 216.582031 Z M 40.847656 217.1875 L 41.050781 217.289062 L 40.292969 217.035156 L 40.898438 217.1875 Z M 48.359375 218.449219 C 48.207031 218.449219 47.855469 218.296875 48.8125 218.449219 C 49.519531 218.546875 50.277344 218.597656 51.183594 218.648438 L 49.769531 218.648438 C 49.316406 218.648438 48.8125 218.546875 48.359375 218.546875 Z M 45.335938 218.042969 L 45.484375 218.042969 Z M 59.804688 218.144531 L 59.652344 218.144531 Z M 48.207031 218.449219 C 47.503906 218.449219 47.097656 218.296875 46.695312 218.246094 C 47.199219 218.347656 47.753906 218.398438 48.359375 218.449219 C 48.394531 218.449219 48.34375 218.449219 48.207031 218.449219 Z M 54.058594 218.546875 C 53.703125 218.546875 53.25 218.546875 52.847656 218.597656 C 53.199219 218.597656 53.957031 218.496094 54.058594 218.546875 Z M 45.738281 218.042969 L 45.636719 218.042969 C 45.890625 218.042969 45.839844 218.042969 45.738281 218.042969 Z M 45.738281 218.042969 C 46.089844 218.09375 46.394531 218.144531 46.644531 218.246094 C 46.242188 218.195312 45.839844 218.09375 45.484375 218.042969 Z M 56.578125 218.496094 L 55.921875 218.496094 C 56.679688 218.449219 57.234375 218.347656 58.191406 218.195312 C 59.300781 218.09375 59.550781 218.09375 59.601562 218.09375 C 58.542969 218.246094 57.433594 218.347656 56.324219 218.449219 L 56.578125 218.449219 Z M 52.898438 218.648438 C 53.148438 218.648438 53.703125 218.75 54.058594 218.75 C 54.410156 218.75 54.5625 218.75 54.058594 218.851562 C 52.089844 218.851562 52.695312 218.800781 51.484375 218.699219 C 54.660156 218.699219 50.578125 218.699219 52.847656 218.597656 C 52.242188 218.597656 51.6875 218.597656 51.132812 218.546875 L 52.746094 218.546875 L 52.695312 218.546875 C 52.542969 218.546875 52.492188 218.546875 52.695312 218.546875 L 52.898438 218.546875 C 53.804688 218.546875 53.046875 218.546875 52.746094 218.546875 L 55.921875 218.546875 C 55.265625 218.546875 54.410156 218.648438 52.949219 218.648438 Z M 37.117188 216.53125 L 37.21875 216.53125 C 37.417969 216.582031 37.46875 216.632812 37.117188 216.53125 Z M 37.117188 216.378906 L 37.316406 216.480469 C 37.921875 216.632812 38.628906 216.835938 39.183594 216.984375 C 39.484375 217.035156 39.738281 217.085938 39.890625 217.136719 C 39.535156 217.136719 39.183594 217.136719 38.425781 216.933594 C 38.226562 216.835938 38.023438 216.785156 37.316406 216.53125 C 36.664062 216.378906 37.316406 216.53125 37.269531 216.582031 C 36.863281 216.429688 35.804688 215.976562 37.167969 216.429688 Z M 39.839844 217.085938 L 39.941406 217.085938 Z M 48.308594 218.699219 C 47.855469 218.699219 47.402344 218.699219 46.949219 218.648438 L 47 218.648438 C 45.484375 218.449219 45.839844 218.398438 45.636719 218.347656 C 46.496094 218.449219 47.402344 218.648438 48.257812 218.699219 Z M 59.703125 217.992188 C 60.207031 217.992188 60.710938 217.992188 61.214844 217.894531 C 60.8125 217.941406 60.460938 217.992188 60.054688 218.042969 L 59.703125 218.042969 Z M 63.332031 217.386719 L 64.242188 217.238281 L 63.484375 217.4375 L 63.332031 217.4375 Z M 140.722656 232.515625 C 141.882812 232.414062 143.195312 232.363281 143.042969 232.464844 L 142.691406 232.464844 C 141.882812 232.464844 141.277344 232.464844 140.722656 232.515625 Z M 98.777344 220.515625 C 97.667969 220.011719 96.761719 219.707031 96.558594 219.507812 C 97.464844 219.910156 98.171875 220.210938 98.777344 220.515625 Z M 167.546875 247.589844 C 167.242188 247.183594 167.191406 246.984375 167.191406 246.984375 C 167.445312 247.4375 167.648438 247.6875 167.546875 247.589844 Z M 101.347656 221.824219 C 101.195312 221.722656 101.046875 221.675781 100.894531 221.574219 C 100.238281 221.21875 99.632812 220.867188 98.828125 220.515625 C 99.632812 220.867188 100.542969 221.320312 101.347656 221.824219 Z M 4.75 204.53125 L 4.546875 204.53125 Z M 3.4375 204.785156 L 4.296875 204.582031 L 4.546875 204.582031 L 4.296875 204.582031 L 3.488281 204.785156 L 4.195312 205.289062 C 4.34375 205.390625 4.496094 205.539062 4.699219 205.691406 C 4.597656 205.589844 4.445312 205.488281 4.195312 205.289062 L 3.488281 204.734375 L 3.4375 204.734375 Z M 76.796875 213.65625 C 76.089844 213.859375 76.695312 213.65625 76.796875 213.65625 Z M 73.820312 215.070312 L 73.519531 215.070312 C 73.667969 215.070312 73.769531 215.019531 73.820312 215.070312 Z M 75.785156 214.0625 C 76.242188 213.910156 76.542969 213.808594 76.644531 213.757812 C 76.339844 213.859375 76.039062 214.011719 75.785156 214.0625 Z M 75.886719 213.960938 C 75.636719 214.0625 75.484375 214.113281 75.28125 214.160156 C 75.183594 214.160156 75.28125 214.160156 75.886719 213.960938 Z M 76.796875 213.65625 C 76.996094 213.605469 77.300781 213.507812 77.753906 213.355469 C 77.351562 213.507812 76.996094 213.605469 76.644531 213.757812 C 76.796875 213.707031 76.84375 213.65625 76.796875 213.707031 Z M 3.691406 203.320312 C 3.285156 203.171875 2.832031 203.070312 2.429688 202.867188 C 2.53125 202.917969 2.832031 203.070312 3.234375 203.222656 C 3.640625 203.324219 4.09375 203.472656 4.546875 203.675781 C 5.152344 203.875 5.707031 204.28125 5.605469 204.382812 L 5.707031 204.480469 L 5.808594 204.582031 L 5.757812 204.582031 C 5.757812 204.632812 5.65625 204.683594 5.605469 204.734375 L 5.253906 204.734375 C 5.101562 204.734375 5 204.683594 4.851562 204.683594 L 4.597656 204.683594 C 4.53125 204.683594 4.429688 204.71875 4.296875 204.785156 L 3.691406 204.984375 L 4.195312 205.339844 L 4.800781 205.742188 C 4.648438 205.742188 5.152344 206.195312 4.597656 205.792969 C 5.453125 206.398438 6.160156 206.902344 5 206.195312 C 9.183594 208.96875 13.773438 210.984375 17.957031 213.65625 C 22.191406 216.28125 26.328125 219.050781 30.714844 221.21875 C 31.320312 221.523438 30.914062 221.421875 30.714844 221.320312 C 32.378906 222.027344 32.226562 222.179688 33.132812 222.582031 C 33.941406 222.882812 34.796875 223.1875 35.65625 223.4375 C 36.613281 223.890625 35.855469 223.640625 35.90625 223.691406 C 38.226562 224.597656 40.644531 225.253906 42.914062 225.808594 C 45.234375 226.3125 47.402344 226.613281 49.417969 226.917969 C 50.730469 226.96875 49.117188 226.714844 50.832031 226.917969 C 49.671875 226.917969 50.878906 227.070312 52.242188 227.167969 C 53.550781 227.269531 55.015625 227.320312 54.308594 227.371094 C 55.117188 227.320312 56.679688 227.371094 57.886719 227.320312 C 59.097656 227.320312 60.054688 227.21875 59.652344 227.070312 C 61.667969 226.96875 61.316406 227.121094 60.761719 227.167969 C 63.132812 227.070312 64.996094 226.917969 66.914062 226.816406 C 67.570312 226.714844 70.242188 226.414062 72.964844 225.808594 C 74.324219 225.503906 75.6875 225.152344 76.84375 224.800781 C 77.398438 224.597656 77.902344 224.445312 78.359375 224.296875 C 78.761719 224.195312 79.113281 224.144531 79.367188 224.144531 C 78.054688 224.347656 79.46875 223.992188 80.675781 224.597656 C 80.273438 224.496094 79.921875 224.445312 79.566406 224.445312 C 80.476562 224.546875 81.382812 225 82.339844 225.40625 C 82.644531 225.554688 82.792969 225.605469 82.945312 225.65625 C 83.046875 225.65625 83.097656 225.707031 83.097656 225.707031 C 83.601562 225.910156 82.996094 225.605469 84.257812 226.109375 C 86.171875 226.917969 86.273438 227.019531 87.332031 227.523438 L 87.03125 227.421875 L 88.339844 227.976562 C 89.296875 228.378906 84.960938 226.464844 88.140625 227.671875 C 88.140625 227.722656 90.003906 228.632812 90.863281 228.882812 C 89.25 228.277344 89.449219 228.277344 90.054688 228.429688 L 92.375 229.289062 L 91.566406 229.136719 C 93.230469 229.792969 94.894531 230.296875 96.558594 230.949219 C 98.171875 231.65625 99.785156 232.464844 101.347656 233.320312 C 104.472656 235.085938 107.550781 237.203125 110.726562 239.21875 C 110.726562 239.117188 111.835938 239.824219 112.945312 240.429688 C 114.054688 241.035156 115.113281 241.539062 114.859375 241.285156 L 114.609375 241.1875 C 112.996094 240.328125 115.164062 241.335938 116.523438 241.941406 C 115.0625 241.386719 119.042969 243.253906 115.515625 241.738281 C 116.371094 242.195312 117.28125 242.597656 118.238281 242.949219 C 118.945312 243.402344 120.808594 244.160156 123.28125 244.3125 C 124.488281 244.363281 125.800781 244.210938 127.0625 243.859375 C 127.667969 243.65625 128.269531 243.402344 128.824219 243.101562 C 129.378906 242.800781 129.882812 242.546875 130.386719 242.292969 C 130.085938 242.445312 130.035156 242.445312 129.984375 242.445312 C 131.699219 241.539062 133.714844 240.679688 135.429688 240.125 C 137.144531 239.574219 138.554688 239.269531 139.011719 239.21875 C 139.109375 239.167969 139.210938 239.117188 139.3125 239.066406 C 140.976562 238.917969 141.933594 238.917969 142.941406 238.867188 L 147.078125 238.867188 C 147.027344 238.867188 146.574219 238.765625 147.175781 238.816406 C 148.1875 238.96875 149.144531 239.117188 151.816406 239.574219 L 151.714844 239.574219 C 151.714844 239.523438 155.949219 240.328125 155.949219 240.328125 C 155.949219 240.175781 157.765625 240.53125 159.679688 241.136719 C 161.597656 241.691406 163.511719 242.648438 164.117188 242.847656 C 164.421875 243.101562 165.226562 243.65625 165.882812 244.460938 C 166.183594 244.867188 166.4375 245.320312 166.636719 245.773438 C 166.839844 246.277344 167.09375 246.679688 167.242188 246.984375 C 167.242188 246.984375 167.34375 247.035156 167.496094 247.234375 C 167.898438 247.992188 168.757812 249 169.867188 249.65625 C 170.972656 250.363281 172.183594 250.765625 173.09375 251.015625 C 174.25 251.371094 173.746094 251.269531 173.191406 251.21875 C 175.5625 251.671875 179.695312 252.53125 180.554688 252.53125 C 182.316406 252.730469 181.210938 252.480469 181.714844 252.429688 C 184.285156 252.679688 181.257812 252.730469 184.738281 252.882812 C 184.335938 252.882812 183.578125 252.78125 183.882812 252.78125 C 185.191406 252.882812 187.613281 252.628906 188.921875 252.78125 L 188.066406 252.78125 C 190.484375 252.984375 193.8125 252.679688 194.167969 252.882812 L 193.914062 252.984375 C 198.097656 252.832031 195.679688 253.035156 199.914062 252.882812 C 201.78125 252.882812 202.738281 252.730469 203.644531 252.882812 L 202.988281 252.882812 L 204.199219 252.882812 C 204.5 252.882812 204.753906 252.730469 204.957031 252.53125 C 205.105469 252.328125 205.207031 252.175781 205.308594 252.023438 L 205.511719 251.621094 L 205.054688 251.621094 C 204.351562 251.519531 203.746094 251.472656 202.585938 251.421875 C 202.332031 251.421875 201.175781 251.269531 200.871094 251.269531 C 200.769531 251.117188 195.476562 250.765625 194.46875 250.714844 C 196.285156 250.917969 195.425781 250.867188 194.921875 250.917969 C 193.863281 250.714844 193.109375 250.613281 191.59375 250.5625 C 191.394531 250.363281 191.140625 250.160156 188.167969 249.808594 C 188.621094 249.90625 189.328125 250.007812 189.023438 250.007812 C 188.722656 250.007812 188.066406 249.90625 187.8125 249.855469 C 187.511719 249.855469 188.46875 250.007812 188.117188 250.007812 C 186.148438 249.605469 184.6875 249.554688 181.863281 249 C 182.773438 249.203125 181.964844 249.101562 181.664062 249.101562 C 181.460938 248.898438 177.730469 248.546875 178.890625 248.496094 C 177.476562 248.242188 175.914062 247.992188 174.402344 247.386719 C 172.890625 246.832031 171.578125 245.773438 170.824219 244.460938 C 170.417969 243.808594 170.167969 243.152344 169.816406 242.445312 C 169.460938 241.789062 169.109375 241.1875 168.65625 240.730469 C 167.847656 239.773438 166.992188 239.167969 166.539062 238.867188 C 166.035156 238.5625 164.671875 237.65625 163.714844 237.253906 L 163.816406 237.40625 C 162.554688 236.75 162.050781 236.597656 161.496094 236.394531 C 160.941406 236.195312 160.335938 235.941406 158.773438 235.386719 C 160.035156 235.890625 159.480469 235.742188 158.167969 235.4375 C 157.460938 235.1875 156.757812 234.933594 156.050781 234.683594 L 155.597656 234.683594 C 154.738281 234.429688 153.730469 234.226562 152.722656 234.078125 C 152.320312 233.925781 151.414062 233.722656 150.453125 233.523438 C 149.34375 233.320312 148.1875 233.117188 147.882812 233.070312 C 146.875 233.070312 145.210938 232.714844 144.453125 232.816406 C 144.152344 232.765625 143.699219 232.714844 143.246094 232.664062 C 143.75 232.664062 143.902344 232.5625 142.992188 232.515625 L 142.792969 232.515625 L 142.386719 232.613281 C 141.480469 232.5625 140.523438 232.613281 139.867188 232.613281 C 140.167969 232.613281 140.472656 232.5625 140.824219 232.515625 C 140.421875 232.515625 140.070312 232.5625 139.714844 232.613281 L 139.363281 232.613281 L 139.566406 232.613281 C 139.011719 232.664062 138.40625 232.714844 137.597656 232.765625 C 135.984375 233.019531 134.21875 233.320312 132.40625 233.722656 C 130.589844 234.175781 128.773438 234.78125 127.210938 235.488281 C 127.667969 235.285156 128.421875 234.984375 128.574219 234.984375 L 127.515625 235.386719 C 127.210938 235.539062 126.859375 235.640625 126.558594 235.742188 C 125.902344 235.941406 125.246094 236.042969 124.589844 236.042969 C 123.332031 236.042969 122.222656 235.691406 121.414062 235.238281 L 121.566406 235.238281 C 120.65625 234.730469 119.851562 234.175781 119.09375 233.671875 C 118.339844 233.167969 117.632812 232.714844 116.875 232.261719 L 116.875 232.109375 C 115.769531 231.457031 114.253906 230.296875 112.84375 229.035156 C 111.382812 227.824219 109.917969 226.765625 109.214844 226.414062 C 108.757812 225.960938 106.238281 224.445312 104.976562 223.691406 L 104.625 223.589844 C 102.960938 222.632812 101.953125 222.078125 100.945312 221.523438 C 99.179688 220.714844 97.515625 219.910156 95.902344 219.101562 C 94.289062 218.296875 92.726562 217.589844 91.265625 216.835938 C 90.308594 216.328125 89.347656 215.726562 88.441406 215.070312 C 89.097656 215.625 87.9375 214.667969 87.179688 214.011719 C 86.828125 213.65625 86.273438 213.101562 85.566406 212.699219 C 84.863281 212.296875 84.003906 212.042969 83.300781 211.992188 C 82.492188 211.894531 81.683594 211.992188 80.929688 212.195312 C 83.5 211.792969 80.726562 212.296875 80.675781 212.5 C 80.222656 212.597656 79.769531 212.75 79.316406 212.902344 C 78.8125 213.152344 80.171875 212.699219 79.214844 213.054688 C 78.308594 213.304688 75.734375 214.210938 74.878906 214.363281 C 74.980469 214.3125 75.28125 214.160156 75.6875 214.011719 C 75.753906 214.011719 75.753906 214.011719 75.6875 214.011719 L 75.785156 214.011719 L 75.6875 214.011719 C 75.585938 214.011719 75.382812 214.0625 75.332031 214.113281 C 73.71875 214.667969 74.273438 214.414062 74.324219 214.363281 C 72.507812 215.121094 71.449219 215.320312 70.039062 215.875 C 70.996094 215.523438 69.886719 215.824219 68.726562 216.128906 C 67.570312 216.429688 66.308594 216.734375 66.863281 216.53125 C 65.5 217.035156 65.90625 216.785156 65.046875 217.136719 C 67.015625 216.632812 69.03125 216.28125 70.644531 215.875 L 69.132812 216.378906 C 70.191406 216.28125 72.609375 215.320312 73.566406 215.070312 C 72.914062 215.222656 71.550781 215.675781 71.5 215.726562 L 71.855469 215.472656 C 74.074219 214.765625 75.835938 214.3125 77.398438 213.808594 C 75.9375 214.363281 79.214844 213.253906 78.15625 213.707031 L 76.996094 214.113281 C 76.84375 214.160156 76.84375 214.210938 76.894531 214.160156 C 73.921875 215.171875 70.894531 216.078125 67.871094 216.835938 L 68.425781 216.683594 L 67.820312 216.683594 C 67.820312 216.734375 67.46875 216.933594 67.46875 216.933594 C 66.410156 217.1875 65.300781 217.4375 64.242188 217.691406 C 64.089844 217.691406 63.484375 217.742188 62.929688 217.84375 C 62.175781 217.941406 61.519531 217.992188 61.921875 217.84375 C 60.914062 218.042969 61.316406 218.09375 59.148438 218.347656 C 57.789062 218.449219 60.8125 217.992188 61.316406 217.84375 C 59.703125 218.09375 59.703125 217.992188 59.652344 217.992188 C 58.34375 218.347656 57.332031 218.699219 58.796875 218.648438 C 57.988281 218.75 57.183594 218.851562 56.375 218.902344 C 57.03125 218.800781 56.375 218.902344 55.519531 218.902344 L 55.46875 218.902344 L 55.71875 218.902344 C 46.34375 219.457031 37.417969 217.289062 28.746094 212.902344 C 20.429688 208.667969 11.957031 204.683594 3.035156 201.910156 C 2.378906 201.707031 1.671875 201.40625 0.867188 201.558594 C 1.976562 202.464844 3.335938 202.71875 4.648438 203.171875 C 4.546875 203.171875 4.445312 203.171875 4.34375 203.121094 C 3.539062 202.96875 2.933594 202.867188 3.742188 203.222656 L 3.742188 203.320312 Z M 191.496094 250.765625 L 192.097656 250.765625 C 192.25 250.765625 192.453125 250.816406 192.652344 250.867188 C 192.199219 250.765625 191.898438 250.664062 192.25 250.714844 L 195.175781 251.066406 L 194.066406 251.066406 C 193.8125 251.066406 193.5625 251.066406 193.308594 251.015625 C 193.058594 251.015625 192.855469 250.964844 192.652344 250.917969 C 192.753906 250.917969 192.855469 250.917969 192.957031 250.964844 C 192.453125 250.964844 192 250.867188 191.542969 250.816406 Z M 158.21875 235.742188 C 158.320312 235.742188 158.472656 235.640625 158.320312 235.539062 C 158.875 235.789062 159.480469 236.042969 160.035156 236.296875 C 159.429688 236.09375 158.824219 235.890625 158.21875 235.742188 Z M 152.621094 234.128906 C 153.078125 234.226562 152.824219 234.175781 152.773438 234.175781 C 152.773438 234.175781 152.671875 234.175781 152.621094 234.128906 Z M 129.027344 235.035156 C 129.785156 234.78125 130.539062 234.582031 131.347656 234.378906 L 131.902344 234.128906 C 133.3125 233.773438 134.675781 233.621094 135.832031 233.574219 C 134.574219 233.773438 133.3125 234.078125 132.101562 234.429688 C 130.84375 234.632812 129.683594 234.933594 129.027344 235.035156 Z M 115.261719 232.007812 C 115.261719 232.007812 115.363281 232.007812 115.464844 232.109375 C 116.222656 232.5625 119.398438 234.378906 119.648438 234.480469 C 119.902344 234.683594 119.953125 234.882812 119.902344 234.984375 C 119.144531 234.53125 118.441406 234.078125 117.683594 233.621094 L 117.53125 233.320312 L 117.382812 233.421875 C 116.675781 232.96875 115.917969 232.464844 115.214844 232.007812 Z M 107.398438 226.058594 C 107.550781 226.160156 107.851562 226.3125 107.800781 226.210938 C 108.304688 226.566406 108.859375 227.019531 109.363281 227.421875 C 108.710938 226.96875 108.054688 226.515625 107.398438 226.058594 Z M 85.011719 212.699219 L 84.960938 212.699219 C 85.367188 212.902344 85.667969 213.054688 85.71875 213.101562 C 85.769531 213.101562 85.617188 213.003906 85.011719 212.699219 Z M 85.011719 212.851562 C 86.019531 213.355469 86.574219 213.960938 86.980469 214.3125 C 87.382812 214.714844 87.734375 215.019531 88.089844 215.320312 C 88.792969 215.925781 89.652344 216.632812 91.921875 217.691406 C 92.324219 217.894531 91.011719 217.136719 93.433594 218.296875 C 95.398438 219.253906 97.011719 220.160156 97.820312 220.664062 C 96.15625 219.859375 94.441406 219.050781 92.726562 218.246094 C 91.316406 217.589844 89.953125 216.882812 88.695312 216.078125 C 88.945312 216.230469 89.148438 216.328125 89.25 216.429688 C 88.542969 216.078125 87.382812 215.171875 86.878906 214.667969 C 87.03125 214.816406 87.230469 214.917969 87.382812 215.019531 C 87.128906 214.816406 86.878906 214.667969 86.625 214.464844 C 86.070312 213.960938 85.46875 213.355469 84.40625 212.953125 C 84.8125 213.003906 83.300781 212.296875 84.960938 212.851562 Z M 83.300781 225.65625 L 82.84375 225.503906 C 82.59375 225.355469 82.289062 225.203125 83.300781 225.65625 Z M 62.324219 218.195312 C 62.527344 218.195312 62.730469 218.144531 62.929688 218.09375 C 62.730469 218.09375 62.527344 218.144531 62.324219 218.195312 Z M 59.097656 218.75 C 60.054688 218.597656 61.117188 218.398438 61.769531 218.347656 C 60.863281 218.496094 59.957031 218.648438 59.097656 218.75 Z M 87.382812 215.019531 C 87.683594 215.269531 88.039062 215.472656 88.339844 215.726562 C 87.988281 215.523438 87.683594 215.269531 87.382812 215.019531 Z M 69.535156 215.824219 L 71.046875 215.421875 C 70.292969 215.625 70.039062 215.726562 69.6875 215.824219 C 69.6875 215.824219 69.988281 215.675781 69.535156 215.824219 Z M 68.222656 216.582031 C 68.125 216.683594 67.164062 216.933594 66.054688 217.1875 L 66.257812 217.1875 C 65.90625 217.085938 67.066406 216.882812 68.222656 216.582031 Z M 64.796875 217.4375 C 64.644531 217.4375 65.199219 217.339844 65.804688 217.1875 C 65.449219 217.289062 65.148438 217.339844 64.796875 217.4375 Z M 79.113281 212.953125 C 78.609375 213.152344 78.761719 212.953125 78.507812 213.101562 C 77.902344 213.203125 81.886719 212.042969 79.113281 212.953125 Z M 74.171875 215.121094 C 74.171875 215.121094 73.972656 215.121094 73.71875 215.222656 C 74.777344 214.867188 75.886719 214.515625 75.886719 214.515625 L 74.222656 215.070312 L 74.171875 215.070312 Z M 73.71875 215.222656 C 73.164062 215.371094 72.660156 215.574219 72.359375 215.625 C 72.660156 215.523438 73.316406 215.371094 73.71875 215.222656 Z M 94.894531 219.203125 C 95.046875 219.304688 94.59375 219.101562 93.9375 218.800781 C 93.535156 218.597656 92.878906 218.246094 93.179688 218.347656 L 94.945312 219.203125 Z M 4.34375 203.828125 L 2.933594 203.421875 L 3.890625 203.625 L 4.394531 203.828125 Z M 1.671875 202.71875 L 1.269531 202.71875 C 1.019531 202.515625 0.765625 202.3125 0.515625 202.0625 C 0.816406 202.3125 1.371094 202.667969 1.621094 202.769531 Z M 156.402344 187.691406 C 156.90625 187.339844 156.65625 187.640625 156.707031 187.59375 C 156.453125 187.792969 156.453125 187.640625 156.402344 187.691406 Z M 160.4375 189.859375 L 160.085938 189.507812 C 160.085938 189.457031 160.4375 189.859375 160.4375 189.859375 Z M 161.195312 190.515625 L 161.042969 190.214844 C 161.597656 190.71875 162.253906 191.421875 162.707031 191.777344 C 162.351562 191.675781 161.796875 190.917969 161.292969 190.566406 L 161.195312 190.566406 Z M 164.015625 192.484375 L 164.066406 192.484375 C 164.117188 192.484375 164.21875 192.582031 164.320312 192.683594 C 164.21875 192.683594 164.570312 192.988281 163.964844 192.433594 Z M 164.066406 192.53125 C 163.816406 192.28125 164.269531 192.632812 164.066406 192.53125 Z M 165.378906 193.691406 L 165.023438 193.289062 C 165.125 193.289062 165.480469 193.640625 165.378906 193.492188 C 165.730469 193.894531 165.628906 193.84375 165.378906 193.640625 Z M 165.480469 193.894531 C 165.480469 193.894531 165.578125 193.945312 165.628906 194.097656 Z M 165.277344 193.691406 C 165.277344 193.742188 165.277344 193.691406 165.074219 193.441406 C 165.175781 193.589844 165.328125 193.691406 165.429688 193.84375 C 165.378906 193.84375 165.328125 193.84375 165.277344 193.640625 Z M 164.671875 193.289062 C 163.964844 192.683594 164.167969 192.683594 164.875 193.289062 C 164.621094 193.136719 164.371094 192.9375 164.671875 193.289062 Z M 162.453125 191.828125 L 162.253906 191.574219 C 162.351562 191.675781 162.808594 192.027344 162.757812 192.027344 Z M 167.394531 196.113281 C 167.394531 196.113281 167.242188 196.011719 167.191406 196.011719 L 167.042969 195.660156 C 167.191406 195.808594 167.394531 196.113281 167.445312 196.113281 Z M 167.191406 196.011719 C 167.292969 196.164062 167.34375 196.363281 167.445312 196.515625 C 167.191406 196.113281 167.144531 196.011719 167.191406 196.011719 Z M 165.578125 194.296875 C 165.378906 194.046875 165.226562 193.792969 165.023438 193.589844 C 165.277344 193.84375 165.480469 194.144531 165.679688 194.449219 Z M 168.453125 198.230469 L 168.453125 197.976562 C 168.402344 197.976562 168.351562 197.675781 168.351562 197.675781 Z M 169.261719 200.246094 C 169.160156 199.945312 169.058594 199.640625 168.855469 199.289062 C 168.855469 199.035156 169.058594 199.539062 169.007812 199.289062 C 169.109375 199.640625 169.160156 199.945312 169.210938 200.246094 Z M 168.152344 197.675781 L 168 197.523438 C 168 197.472656 167.949219 197.375 167.898438 197.324219 C 167.898438 197.324219 168 197.421875 168.152344 197.675781 Z M 167.949219 197.523438 C 168.050781 197.726562 168.101562 197.878906 168.152344 197.925781 C 168.152344 197.878906 168.050781 197.726562 167.949219 197.523438 Z M 166.589844 195.710938 C 166.488281 195.507812 166.738281 195.757812 166.589844 195.304688 C 166.738281 195.609375 167.042969 196.214844 166.589844 195.710938 Z M 167.34375 196.566406 C 167.34375 196.566406 167.445312 196.617188 167.394531 196.464844 C 167.496094 196.667969 167.546875 196.867188 167.648438 197.070312 Z M 167.699219 197.371094 L 167.597656 197.121094 L 167.699219 197.324219 L 167.699219 197.421875 Z M 168.957031 199.84375 C 168.957031 200.09375 169.109375 200.347656 169.210938 200.601562 C 169.058594 200.296875 168.957031 199.996094 168.855469 199.691406 C 168.855469 199.640625 168.855469 199.492188 169.007812 199.792969 L 168.957031 199.792969 Z M 170.21875 203.421875 C 170.21875 203.371094 170.21875 203.421875 170.21875 203.421875 Z M 168.757812 199.640625 C 168.65625 199.441406 168.605469 199.289062 168.605469 199.136719 C 168.65625 199.289062 168.707031 199.492188 168.804688 199.691406 Z M 169.410156 201.105469 C 169.460938 201.203125 169.613281 201.40625 169.613281 201.457031 C 169.613281 201.355469 169.460938 201.203125 169.410156 201.105469 Z M 168.554688 198.835938 Z M 168.554688 198.835938 C 168.554688 198.9375 168.554688 199.085938 168.605469 199.1875 C 168.605469 199.035156 168.503906 198.9375 168.503906 198.785156 C 168.503906 198.785156 168.503906 198.835938 168.554688 198.835938 Z M 169.816406 202.363281 L 169.816406 202.164062 C 169.816406 202.414062 169.964844 202.566406 170.117188 202.867188 C 170.21875 203.222656 170.21875 203.320312 170.117188 203.371094 L 169.714844 202.3125 L 169.714844 202.414062 L 169.765625 202.414062 Z M 169.3125 201.609375 C 169.058594 200.953125 169.210938 201.15625 169.109375 200.75 C 169.460938 201.757812 169.058594 200.449219 169.359375 201.15625 C 169.3125 200.953125 169.261719 200.75 169.160156 200.601562 C 169.261719 200.75 169.3125 200.953125 169.410156 201.105469 C 169.410156 201.105469 169.410156 201.054688 169.410156 201.105469 C 169.5625 201.457031 169.410156 201.15625 169.410156 201.105469 L 169.765625 202.164062 C 169.664062 201.960938 169.5625 201.660156 169.410156 201.203125 C 169.410156 201.40625 169.5625 201.960938 169.3125 201.660156 Z M 166.738281 196.3125 C 166.738281 196.363281 166.738281 196.414062 166.738281 196.3125 Z M 167.445312 197.019531 Z M 166.890625 196.3125 C 167.09375 196.617188 167.394531 196.917969 167.445312 197.019531 C 167.34375 196.96875 167.191406 196.867188 166.992188 196.667969 C 166.992188 196.617188 166.992188 196.515625 166.839844 196.3125 C 166.6875 196.113281 166.839844 196.3125 166.789062 196.3125 C 166.738281 196.164062 166.539062 195.808594 166.839844 196.214844 L 166.839844 196.3125 Z M 168.300781 199.390625 L 168.351562 199.390625 C 168.152344 198.9375 168.25 198.988281 168.25 198.9375 L 168.503906 199.792969 L 168.25 199.390625 Z M 170.417969 203.875 L 170.320312 203.472656 L 170.320312 203.324219 C 170.320312 203.324219 170.417969 203.875 170.417969 203.875 Z M 170.824219 204.835938 L 170.671875 204.582031 C 170.671875 204.53125 170.671875 204.835938 170.671875 204.835938 Z M 181.210938 232.363281 L 181.058594 232.363281 C 180.957031 232.109375 180.90625 231.910156 180.804688 231.757812 C 181.007812 232.058594 181.308594 232.363281 181.210938 232.363281 Z M 175.261719 216.734375 C 175.058594 216.378906 174.855469 216.078125 174.90625 215.976562 C 175.058594 216.28125 175.160156 216.53125 175.261719 216.734375 Z M 189.578125 239.824219 C 189.425781 239.722656 189.375 239.671875 189.425781 239.671875 C 189.578125 239.773438 189.628906 239.824219 189.578125 239.824219 Z M 175.5625 217.640625 C 175.5625 217.589844 175.5625 217.539062 175.460938 217.488281 C 175.460938 217.238281 175.308594 217.035156 175.210938 216.734375 C 175.359375 216.984375 175.511719 217.289062 175.5625 217.640625 Z M 157.867188 191.777344 C 157.867188 191.726562 157.765625 191.574219 157.714844 191.375 C 157.714844 191.472656 157.816406 191.625 157.867188 191.777344 Z M 172.386719 209.019531 C 172.285156 208.765625 172.386719 209.019531 172.386719 209.019531 Z M 172.234375 208.71875 C 172.234375 208.816406 172.335938 208.917969 172.386719 209.019531 C 172.386719 208.96875 172.386719 208.867188 172.234375 208.71875 Z M 172.285156 208.71875 C 172.285156 208.617188 172.285156 208.566406 172.183594 208.515625 Z M 172.386719 209.019531 C 172.386719 209.070312 172.386719 209.171875 172.488281 209.371094 C 172.488281 209.222656 172.386719 209.121094 172.335938 209.019531 C 172.335938 209.019531 172.335938 209.070312 172.335938 209.019531 Z M 157.3125 190.515625 L 157.964844 191.777344 C 157.917969 191.777344 157.964844 191.976562 157.816406 191.777344 C 157.964844 192.078125 158.066406 192.382812 157.816406 191.976562 C 159.429688 194.953125 160.4375 198.28125 161.949219 201.253906 C 162.050781 201.457031 161.949219 201.355469 161.847656 201.253906 C 162.203125 201.757812 162 201.808594 162.152344 202.113281 L 162.707031 202.867188 C 162.808594 203.222656 162.605469 202.96875 162.605469 203.019531 C 163.210938 204.582031 164.066406 206.042969 164.46875 207.304688 C 164.722656 207.65625 164.570312 207.152344 164.824219 207.65625 C 164.320312 207.003906 165.378906 209.222656 165.074219 208.816406 C 165.480469 209.222656 165.933594 210.683594 166.082031 210.332031 C 166.386719 210.933594 166.183594 210.886719 166.082031 210.734375 C 166.386719 211.4375 166.636719 212.042969 166.839844 212.699219 C 167.09375 213.054688 168.203125 216.078125 168.707031 216.632812 C 168.402344 216.230469 168.65625 216.683594 168.757812 217.136719 L 168.453125 216.785156 L 168.855469 217.742188 C 168.90625 217.941406 168.957031 217.992188 168.957031 217.992188 C 169.058594 218.144531 169.007812 217.941406 169.210938 218.347656 C 169.511719 219.003906 169.460938 219.050781 169.5625 219.457031 L 169.5625 219.355469 C 169.511719 219.355469 169.664062 219.808594 169.664062 219.808594 C 169.816406 220.109375 169.261719 218.597656 169.816406 219.65625 C 169.816406 219.65625 169.914062 220.363281 170.117188 220.617188 C 169.867188 220.0625 169.964844 220.109375 170.117188 220.3125 L 170.46875 221.070312 L 170.21875 220.867188 C 171.175781 223.085938 172.234375 225.304688 173.242188 227.671875 C 173.34375 227.574219 173.949219 229.335938 174.050781 229.035156 L 174.050781 228.933594 C 173.746094 228.328125 174.199219 229.035156 174.402344 229.539062 C 174.152344 229.085938 174.605469 230.496094 174.050781 229.335938 L 174.351562 230.296875 C 174.351562 230.648438 174.554688 231.253906 174.90625 231.960938 C 175.261719 232.714844 175.914062 233.523438 176.621094 234.027344 C 176.554688 233.960938 176.519531 233.910156 176.519531 233.875 C 176.824219 234.128906 177.175781 234.328125 177.527344 234.429688 C 177.882812 234.53125 178.183594 234.632812 178.535156 234.730469 C 179.140625 234.882812 179.644531 235.035156 179.746094 235.085938 L 179.898438 235.085938 C 180.90625 235.539062 181.058594 235.640625 182.367188 236.042969 C 182.367188 236.042969 182.21875 235.941406 182.367188 235.992188 C 182.621094 236.195312 182.921875 236.394531 183.78125 236.75 C 184.234375 236.898438 184.6875 237.101562 185.089844 237.304688 C 185.242188 237 187.257812 238.5625 187.8125 238.464844 C 188.015625 238.664062 188.972656 239.21875 189.328125 239.472656 L 189.425781 239.472656 C 189.832031 239.925781 190.839844 240.226562 191.394531 240.582031 C 191.695312 240.832031 191.542969 240.78125 191.394531 240.730469 C 192.148438 241.035156 193.15625 242.042969 193.460938 242.195312 C 193.964844 242.496094 193.710938 242.195312 193.914062 242.195312 C 194.621094 242.699219 193.613281 242.34375 194.671875 242.898438 C 194.570312 242.800781 194.367188 242.648438 194.46875 242.699219 C 194.871094 242.949219 195.730469 243.101562 196.03125 243.402344 L 195.78125 243.253906 C 196.382812 243.808594 197.492188 244.210938 197.445312 244.460938 L 197.292969 244.460938 C 198.503906 245.21875 197.746094 244.917969 199.007812 245.621094 C 199.15625 245.671875 199.308594 245.824219 199.460938 245.875 C 199.613281 245.875 199.8125 245.824219 199.863281 245.824219 L 200.015625 245.824219 L 200.015625 245.671875 C 200.015625 245.472656 200.015625 245.320312 200.117188 245.167969 L 200.117188 245.421875 C 200.117188 244.917969 199.914062 244.664062 199.8125 244.460938 C 199.660156 244.261719 199.460938 244.109375 199.15625 243.859375 C 199.15625 243.808594 198.855469 243.554688 198.703125 243.453125 C 198.703125 243.304688 197.34375 242.195312 197.089844 241.941406 C 197.542969 242.34375 197.292969 242.195312 197.089844 242.144531 C 196.890625 241.839844 196.6875 241.640625 196.234375 241.386719 C 196.234375 241.1875 196.335938 240.984375 195.527344 240.328125 C 195.628906 240.429688 195.832031 240.632812 195.730469 240.582031 C 195.628906 240.582031 195.476562 240.378906 195.425781 240.328125 C 195.324219 240.328125 195.578125 240.53125 195.425781 240.480469 C 194.972656 239.925781 194.46875 239.722656 193.710938 239.117188 C 193.964844 239.371094 193.710938 239.21875 193.5625 239.21875 C 193.5625 239.019531 192.351562 238.613281 192.804688 238.613281 C 191.140625 237.605469 188.519531 236.042969 187.761719 235.890625 C 187.5625 235.890625 187.109375 235.539062 186.804688 235.386719 L 186.804688 235.488281 C 186 234.933594 186.148438 235.136719 185.191406 234.53125 C 185.59375 234.832031 185.394531 234.78125 184.941406 234.683594 L 184.285156 234.226562 L 184.082031 234.226562 C 183.78125 234.128906 183.476562 234.078125 183.125 233.976562 C 183.277344 234.027344 183.125 233.976562 183.125 234.027344 C 183.125 233.925781 182.722656 233.773438 182.417969 233.574219 C 182.117188 233.421875 181.8125 233.167969 181.8125 233.117188 C 181.460938 233.117188 181.257812 232.5625 181.007812 232.464844 C 181.007812 232.363281 180.90625 232.210938 180.855469 232.109375 C 181.007812 232.210938 181.109375 232.210938 180.957031 231.960938 C 180.957031 231.910156 180.804688 231.910156 180.804688 231.910156 C 180.703125 231.554688 180.605469 231.253906 180.554688 231.101562 C 180.554688 231.203125 180.65625 231.304688 180.703125 231.355469 C 180.703125 231.253906 180.605469 231.152344 180.503906 231 L 180.503906 230.902344 C 180.402344 230.800781 180.351562 230.597656 180.25 230.347656 C 179.746094 229.4375 179.597656 228.179688 179.089844 227.121094 C 179.089844 227.21875 179.191406 227.320312 179.191406 227.371094 C 178.839844 226.414062 178.335938 225.554688 178.234375 224.902344 L 178.335938 224.902344 C 178.132812 224.195312 177.933594 223.640625 177.730469 223.085938 L 177.832031 223.085938 C 177.476562 222.230469 177.023438 220.414062 176.621094 220.011719 C 176.621094 219.757812 176.167969 218.902344 176.015625 218.398438 L 175.914062 218.296875 C 175.664062 217.691406 175.5625 217.339844 175.460938 216.933594 C 174.855469 215.773438 174.605469 214.566406 174.152344 213.507812 L 173.796875 212.398438 C 173.796875 212.699219 173.796875 212.144531 173.648438 211.84375 C 173.546875 211.488281 173.34375 210.933594 173.140625 210.53125 L 172.890625 209.824219 C 173.140625 210.632812 172.738281 209.824219 172.636719 209.824219 L 172.539062 209.371094 C 172.4375 209.222656 172.539062 209.675781 172.4375 209.371094 C 172.4375 209.070312 172.03125 208.164062 172.03125 207.859375 C 172.03125 207.859375 172.132812 208.011719 172.183594 208.113281 L 172.183594 207.960938 C 171.984375 207.40625 172.082031 207.609375 172.183594 207.609375 C 171.832031 207.054688 171.78125 206.648438 171.429688 206.246094 C 171.882812 206.800781 170.875 204.835938 171.226562 205.136719 C 170.925781 204.734375 171.125 204.835938 170.875 204.582031 C 171.175781 205.238281 171.277344 205.945312 171.378906 206.5 L 171.074219 205.996094 C 171.074219 206.398438 171.578125 207.152344 171.628906 207.457031 C 171.628906 207.253906 171.378906 206.800781 171.328125 206.800781 L 171.527344 206.902344 C 171.832031 207.609375 171.984375 208.261719 172.082031 208.816406 C 171.882812 208.3125 172.234375 209.421875 171.984375 209.121094 L 171.832031 208.71875 C 171.832031 208.617188 171.832031 208.71875 171.832031 208.816406 C 171.527344 208.011719 171.226562 207.253906 170.972656 206.449219 L 171.175781 206.902344 L 171.023438 206.5 L 171.023438 206.398438 C 170.722656 205.792969 170.519531 205.136719 170.269531 204.53125 C 170.371094 204.480469 170.066406 203.472656 170.269531 203.726562 C 170.117188 203.421875 170.066406 203.574219 169.867188 202.867188 C 169.765625 202.414062 170.21875 203.371094 170.320312 203.523438 C 170.167969 202.96875 170.21875 202.96875 170.21875 202.917969 C 169.914062 202.515625 169.511719 202.3125 169.613281 202.816406 C 169.816406 203.171875 169.964844 203.625 169.964844 203.828125 C 169.359375 202.214844 168.757812 200.601562 168.203125 198.984375 C 167.34375 196.617188 166.183594 194.652344 164.21875 193.035156 C 161.898438 191.171875 159.832031 189.003906 157.363281 187.339844 C 157.160156 187.492188 157.007812 187.640625 156.808594 187.742188 C 157.007812 188.148438 157.160156 188.601562 157.3125 189.003906 C 157.109375 188.75 156.90625 188.550781 156.957031 188.902344 L 156.808594 188.5 C 156.757812 188.699219 157.363281 189.808594 157.3125 190.0625 Z M 196.183594 241.992188 C 196.183594 241.992188 196.183594 241.992188 196.382812 242.042969 C 196.382812 242.042969 196.484375 242.144531 196.484375 242.195312 C 196.382812 242.042969 196.335938 241.941406 196.484375 241.992188 L 197.191406 242.699219 C 197.089844 242.648438 196.988281 242.597656 196.789062 242.496094 C 196.789062 242.496094 196.6875 242.445312 196.636719 242.394531 C 196.636719 242.34375 196.484375 242.246094 196.433594 242.195312 C 196.433594 242.195312 196.433594 242.292969 196.433594 242.292969 C 196.285156 242.195312 196.183594 242.09375 196.03125 241.992188 Z M 184.992188 235.335938 C 184.992188 235.285156 185.089844 235.238281 185.089844 235.136719 C 185.242188 235.285156 185.394531 235.4375 185.59375 235.539062 C 185.394531 235.4375 185.242188 235.386719 185.039062 235.285156 Z M 179.191406 228.078125 L 179.394531 228.882812 L 179.546875 229.035156 C 179.695312 229.488281 179.695312 229.992188 179.695312 230.394531 C 179.546875 229.992188 179.394531 229.539062 179.242188 229.136719 C 179.242188 228.683594 179.242188 228.277344 179.191406 228.078125 Z M 177.074219 223.289062 L 177.175781 223.289062 C 177.378906 223.589844 177.933594 224.699219 177.984375 224.800781 C 177.984375 224.902344 177.882812 225 177.730469 225.050781 C 177.628906 224.800781 177.527344 224.496094 177.429688 224.246094 L 177.527344 224.09375 L 177.378906 224.09375 C 177.277344 223.84375 177.175781 223.589844 177.074219 223.289062 Z M 175.863281 220.160156 C 175.863281 220.210938 176.015625 220.3125 176.015625 220.261719 C 176.015625 220.464844 176.117188 220.714844 176.167969 220.917969 C 176.066406 220.664062 175.964844 220.414062 175.863281 220.160156 Z M 173.292969 211.640625 C 173.394531 211.894531 173.496094 211.992188 173.292969 211.640625 Z M 173.445312 213.203125 C 173.292969 212.75 173.042969 212.398438 172.789062 211.691406 C 172.890625 211.792969 172.789062 211.238281 173.140625 211.691406 C 173.746094 212.953125 173.34375 212.851562 173.949219 214.464844 C 173.949219 214.617188 173.949219 214.0625 174.25 214.96875 C 174.453125 215.726562 174.605469 216.378906 174.605469 216.734375 C 174.101562 215.371094 173.597656 214.0625 173.09375 212.699219 C 173.242188 213.152344 173.394531 213.457031 173.496094 213.605469 C 173.34375 213.355469 173.242188 212.902344 173.191406 212.648438 C 173.191406 212.648438 173.445312 213.203125 173.445312 213.203125 Z M 170.015625 204.429688 L 170.015625 204.683594 Z M 169.109375 218.195312 L 169.007812 218.042969 C 169.007812 217.941406 169.007812 217.84375 169.109375 218.195312 Z M 171.679688 207.105469 C 171.578125 206.851562 171.527344 206.75 171.480469 206.648438 C 171.480469 206.648438 171.578125 206.75 171.480469 206.597656 L 171.628906 207.105469 Z M 169.261719 202.414062 C 169.261719 202.3125 169.210938 202.261719 169.210938 202.164062 L 169.261719 202.164062 C 169.359375 202.464844 169.410156 202.71875 169.261719 202.414062 Z M 171.023438 206.246094 C 170.925781 206.246094 170.824219 205.894531 170.722656 205.539062 C 170.824219 205.441406 170.925781 205.84375 171.023438 206.246094 Z M 170.722656 205.441406 C 170.722656 205.339844 170.621094 205.238281 170.621094 205.085938 C 170.621094 204.9375 170.621094 205.238281 170.722656 205.441406 Z M 172.636719 209.824219 C 172.539062 209.675781 172.636719 209.675781 172.636719 209.574219 C 172.636719 209.320312 172.941406 210.734375 172.636719 209.824219 Z M 170.773438 206.347656 L 170.621094 206.042969 L 170.773438 206.144531 L 170.773438 206.398438 Z M 171.78125 208.816406 L 171.527344 208.261719 L 171.527344 208.113281 C 171.679688 208.464844 171.832031 208.816406 171.78125 208.816406 Z M 171.527344 208.113281 C 171.527344 207.910156 171.378906 207.757812 171.378906 207.65625 C 171.378906 207.757812 171.480469 207.960938 171.527344 208.113281 Z M 174.050781 214.96875 L 174.25 215.625 C 174.25 215.726562 174.152344 215.523438 174.101562 215.320312 C 174.101562 215.171875 174 214.917969 174.101562 215.019531 Z M 156.808594 189.507812 L 156.808594 189.710938 L 156.605469 189.253906 Z M 156.453125 188.347656 C 156.453125 188.449219 156.554688 188.652344 156.605469 188.75 L 156.402344 188.75 L 156.402344 188.347656 Z M 156.453125 188.347656 "/></g></g></g></g></g></svg>