<svg xmlns="http://www.w3.org/2000/svg" xmlns:xlink="http://www.w3.org/1999/xlink" width="400" zoomAndPan="magnify" viewBox="0 0 300 299.999988" height="400" preserveAspectRatio="xMidYMid meet" version="1.2"><defs><clipPath id="72cbc882c8"><path d="M 45.496094 19.320312 L 254.746094 19.320312 L 254.746094 269.820312 L 45.496094 269.820312 Z M 45.496094 19.320312 "/></clipPath></defs><g id="3f1dc7ffec"><g clip-rule="nonzero" clip-path="url(#72cbc882c8)"><path style=" stroke:none;fill-rule:nonzero;fill:#000000;fill-opacity:1;" d="M 139.875 196.128906 C 133.695312 193.875 129.542969 187.988281 129.542969 181.496094 L 129.542969 171.058594 C 129.542969 156.675781 141.277344 144.964844 155.683594 144.964844 L 179.496094 144.964844 C 181.359375 144.964844 183.074219 143.972656 184.011719 142.367188 C 186.878906 137.449219 191.917969 134.527344 197.515625 134.527344 C 203.109375 134.527344 208.148438 137.460938 211.015625 142.367188 C 211.957031 143.972656 213.671875 144.964844 215.53125 144.964844 L 228.550781 144.964844 C 231.4375 144.964844 233.777344 142.628906 233.777344 139.746094 L 233.777344 55.851562 C 233.777344 47.21875 226.742188 40.195312 218.09375 40.195312 L 207.636719 40.195312 C 204.75 40.195312 202.40625 42.53125 202.40625 45.414062 L 202.40625 55.851562 C 202.40625 64.480469 195.371094 71.507812 186.722656 71.507812 L 92.609375 71.507812 C 83.960938 71.507812 76.921875 64.480469 76.921875 55.851562 L 76.921875 45.414062 C 76.921875 42.53125 74.578125 40.195312 71.695312 40.195312 L 61.238281 40.195312 C 52.589844 40.195312 45.550781 47.21875 45.550781 55.851562 L 45.550781 254.164062 C 45.550781 262.792969 52.589844 269.820312 61.238281 269.820312 L 150.015625 269.820312 C 151.574219 269.820312 153.050781 269.128906 154.042969 267.929688 C 155.035156 266.730469 155.445312 265.164062 155.152344 263.628906 L 143.210938 200.066406 C 142.875 198.269531 141.609375 196.765625 139.875 196.128906 Z M 92.609375 61.070312 L 186.722656 61.070312 C 189.609375 61.070312 191.949219 58.730469 191.949219 55.851562 L 191.949219 45.414062 C 191.949219 36.78125 184.914062 29.757812 176.265625 29.757812 L 157.714844 29.757812 C 154.023438 23.390625 147.171875 19.320312 139.664062 19.320312 C 132.15625 19.320312 125.308594 23.390625 121.617188 29.757812 L 103.066406 29.757812 C 94.417969 29.757812 87.378906 36.78125 87.378906 45.414062 L 87.378906 55.851562 C 87.378906 58.730469 89.722656 61.070312 92.609375 61.070312 Z M 239.007812 155.007812 L 202.40625 155.007812 L 202.40625 149.789062 C 202.40625 146.90625 200.066406 144.570312 197.179688 144.570312 C 194.292969 144.570312 191.949219 146.90625 191.949219 149.789062 L 191.949219 155.007812 L 155.351562 155.007812 C 146.703125 155.007812 139.664062 162.03125 139.664062 170.664062 L 139.664062 181.101562 C 139.664062 183.980469 142.007812 186.320312 144.894531 186.320312 L 151.011719 186.320312 L 165.902344 265.558594 C 166.363281 268.035156 168.527344 269.820312 171.035156 269.820312 L 223.320312 269.820312 C 225.832031 269.820312 227.996094 268.035156 228.457031 265.558594 L 243.347656 186.320312 L 249.464844 186.320312 C 252.351562 186.320312 254.691406 183.980469 254.691406 181.101562 L 254.691406 170.664062 C 254.691406 162.03125 247.65625 155.007812 239.007812 155.007812 Z M 187.371094 248.902344 C 187.152344 248.921875 186.929688 248.945312 186.710938 248.945312 C 184.117188 248.945312 181.859375 247.011719 181.535156 244.371094 L 176.308594 202.621094 C 175.953125 199.761719 177.980469 197.152344 180.84375 196.796875 C 183.667969 196.484375 186.324219 198.457031 186.691406 201.328125 L 191.917969 243.078125 C 192.265625 245.9375 190.234375 248.546875 187.371094 248.902344 Z M 212.824219 244.371094 C 212.5 247.011719 210.238281 248.945312 207.648438 248.945312 C 207.425781 248.945312 207.207031 248.933594 206.988281 248.902344 C 204.132812 248.546875 202.09375 245.9375 202.449219 243.078125 L 207.679688 201.328125 C 208.035156 198.457031 210.691406 196.484375 213.523438 196.796875 C 216.378906 197.152344 218.417969 199.761719 218.0625 202.621094 Z M 212.824219 244.371094 "/></g></g></svg>